<?xml version="1.0" encoding="UTF-8"?>
<svg width="171px" height="43px" viewBox="0 0 171 43" version="1.1" xmlns="http://www.w3.org/2000/svg" xmlns:xlink="http://www.w3.org/1999/xlink">
    <!-- Generator: Sketch 48.1 (47250) - http://www.bohemiancoding.com/sketch -->
    <title>the-example-app-logo-java</title>
    <desc>Created with Sketch.</desc>
    <defs></defs>
    <g id="Page-1" stroke="none" stroke-width="1" fill="none" fill-rule="evenodd">
        <g id="the-example-app-logo-java">
            <g id="Group" transform="translate(0.000000, 2.000000)" fill-rule="nonzero">
                <polygon id="Shape" fill="#D9453F" points="3.75 37 3.75 29.9 28 29.9 28 37"></polygon>
                <circle id="Oval" fill="#F5A623" cx="9.3" cy="14.3" r="9.3"></circle>
                <polygon id="Shape" fill="#3C80CF" points="35 27.6 19 0.4 35 0.4"></polygon>
            </g>
            <g id="Group" transform="translate(45.000000, 0.000000)">
                <g transform="translate(0.000000, 22.000000)" fill="#000000" id="example-app">
                    <path d="M8.14,9.88 C8.14,9.3599974 7.9766683,8.9133352 7.65,8.54 C7.3233317,8.1666648 6.8333366,7.98 6.18,7.98 C5.8599984,7.98 5.566668,8.0299995 5.3,8.13 C5.033332,8.2300005 4.800001,8.3666658 4.6,8.54 C4.399999,8.7133342 4.2400006,8.9166655 4.12,9.15 C3.9999994,9.3833345 3.9333334,9.6266654 3.92,9.88 L8.14,9.88 Z M11.16,11.14 L11.16,11.54 C11.16,11.673334 11.1533334,11.7999994 11.14,11.92 L3.92,11.92 C3.9466668,12.2000014 4.0299993,12.4533322 4.17,12.68 C4.3100007,12.9066678 4.4899989,13.1033325 4.71,13.27 C4.9300011,13.4366675 5.1766653,13.5666662 5.45,13.66 C5.7233347,13.7533338 6.0066652,13.8 6.3,13.8 C6.8200026,13.8 7.2599982,13.7033343 7.62,13.51 C7.9800018,13.3166657 8.2733322,13.0666682 8.5,12.76 L10.78,14.2 C10.313331,14.8800034 9.6966705,15.4033315 8.93,15.77 C8.1633295,16.1366685 7.2733384,16.32 6.26,16.32 C5.5133296,16.32 4.80667,16.2033345 4.14,15.97 C3.47333,15.7366655 2.8900025,15.3966689 2.39,14.95 C1.8899975,14.5033311 1.4966681,13.9533366 1.21,13.3 C0.9233319,12.6466634 0.78,11.9000042 0.78,11.06 C0.78,10.2466626 0.9199986,9.5100033 1.2,8.85 C1.4800014,8.1899967 1.8599976,7.6300023 2.34,7.17 C2.8200024,6.7099977 3.3866634,6.3533346 4.04,6.1 C4.6933366,5.8466654 5.3999962,5.72 6.16,5.72 C6.893337,5.72 7.5666636,5.8433321 8.18,6.09 C8.7933364,6.3366679 9.3199978,6.693331 9.76,7.16 C10.2000022,7.626669 10.5433321,8.19333 10.79,8.86 C11.0366679,9.52667 11.16,10.2866624 11.16,11.14 Z M19.56,16 L17.42,12.94 L15.22,16 L11.42,16 L15.4,10.78 L11.8,6.04 L15.62,6.04 L17.48,8.7 L19.36,6.04 L23.06,6.04 L19.48,10.78 L23.42,16 L19.56,16 Z M30.52,11.66 L30.1,11.66 C29.7399982,11.66 29.3766685,11.6766665 29.01,11.71 C28.6433315,11.7433335 28.3166681,11.8066662 28.03,11.9 C27.7433319,11.9933338 27.5066676,12.1299991 27.32,12.31 C27.1333324,12.4900009 27.04,12.7266652 27.04,13.02 C27.04,13.2066676 27.0833329,13.366666 27.17,13.5 C27.2566671,13.633334 27.366666,13.7399996 27.5,13.82 C27.633334,13.9000004 27.7866658,13.9566665 27.96,13.99 C28.1333342,14.0233335 28.2999992,14.04 28.46,14.04 C29.12667,14.04 29.6366649,13.8566685 29.99,13.49 C30.3433351,13.1233315 30.52,12.6266698 30.52,12 L30.52,11.66 Z M24.5,7.4 C25.0866696,6.8399972 25.7699961,6.4200014 26.55,6.14 C27.3300039,5.8599986 28.1266626,5.72 28.94,5.72 C29.7800042,5.72 30.4899971,5.8233323 31.07,6.03 C31.6500029,6.2366677 32.1199982,6.5566645 32.48,6.99 C32.8400018,7.4233355 33.1033325,7.9699967 33.27,8.63 C33.4366675,9.2900033 33.52,10.0733288 33.52,10.98 L33.52,16 L30.52,16 L30.52,14.94 L30.46,14.94 C30.2066654,15.3533354 29.8233359,15.6733322 29.31,15.9 C28.7966641,16.1266678 28.240003,16.24 27.64,16.24 C27.239998,16.24 26.8266688,16.1866672 26.4,16.08 C25.9733312,15.9733328 25.5833351,15.8000012 25.23,15.56 C24.8766649,15.3199988 24.5866678,15.000002 24.36,14.6 C24.1333322,14.199998 24.02,13.7066696 24.02,13.12 C24.02,12.3999964 24.2166647,11.8200022 24.61,11.38 C25.0033353,10.9399978 25.5099969,10.6000012 26.13,10.36 C26.7500031,10.1199988 27.4399962,9.9600004 28.2,9.88 C28.9600038,9.7999996 29.6999964,9.76 30.42,9.76 L30.42,9.6 C30.42,9.1066642 30.2466684,8.7433345 29.9,8.51 C29.5533316,8.2766655 29.1266692,8.16 28.62,8.16 C28.153331,8.16 27.7033355,8.259999 27.27,8.46 C26.8366645,8.660001 26.4666682,8.8999986 26.16,9.18 L24.5,7.4 Z M48.68,16 L48.68,10.56 C48.68,10.2799986 48.6600002,10.0100013 48.62,9.75 C48.5799998,9.4899987 48.5066672,9.2666676 48.4,9.08 C48.2933328,8.8933324 48.1500009,8.7433339 47.97,8.63 C47.7899991,8.5166661 47.5533348,8.46 47.26,8.46 C46.9799986,8.46 46.7366677,8.5199994 46.53,8.64 C46.3233323,8.7600006 46.1500007,8.919999 46.01,9.12 C45.8699993,9.320001 45.766667,9.5499987 45.7,9.81 C45.633333,10.0700013 45.6,10.3399986 45.6,10.62 L45.6,16 L42.32,16 L42.32,10.32 C42.32,9.7466638 42.2066678,9.293335 41.98,8.96 C41.7533322,8.626665 41.3933358,8.46 40.9,8.46 C40.3799974,8.46 39.9766681,8.6666646 39.69,9.08 C39.4033319,9.4933354 39.26,9.999997 39.26,10.6 L39.26,16 L35.96,16 L35.96,6.04 L39.14,6.04 L39.14,7.42 L39.18,7.42 C39.3000006,7.2066656 39.4499991,7.000001 39.63,6.8 C39.8100009,6.599999 40.0266654,6.4233341 40.28,6.27 C40.5333346,6.1166659 40.8166651,5.9933338 41.13,5.9 C41.4433349,5.8066662 41.7866648,5.76 42.16,5.76 C42.8800036,5.76 43.4899975,5.9066652 43.99,6.2 C44.4900025,6.4933348 44.8799986,6.9133306 45.16,7.46 C45.493335,6.9399974 45.9199974,6.5266682 46.44,6.22 C46.9600026,5.9133318 47.5933296,5.76 48.34,5.76 C49.0200034,5.76 49.5899977,5.8833321 50.05,6.13 C50.5100023,6.3766679 50.8799986,6.6966647 51.16,7.09 C51.4400014,7.4833353 51.6433327,7.9233309 51.77,8.41 C51.8966673,8.8966691 51.96,9.373331 51.96,9.84 L51.96,16 L48.68,16 Z M65.52,10.98 C65.52,11.6733368 65.4133344,12.3399968 65.2,12.98 C64.9866656,13.6200032 64.6766687,14.1833309 64.27,14.67 C63.8633313,15.1566691 63.3666696,15.5466652 62.78,15.84 C62.1933304,16.1333348 61.5266704,16.28 60.78,16.28 C60.1666636,16.28 59.5866694,16.1566679 59.04,15.91 C58.4933306,15.6633321 58.0666682,15.3266688 57.76,14.9 L57.72,14.9 L57.72,20.8 L54.44,20.8 L54.44,6.04 L57.56,6.04 L57.56,7.26 L57.62,7.26 C57.9266682,6.859998 58.3499973,6.5100015 58.89,6.21 C59.4300027,5.9099985 60.066663,5.76 60.8,5.76 C61.5200036,5.76 62.1733304,5.8999986 62.76,6.18 C63.3466696,6.4600014 63.8433313,6.8399976 64.25,7.32 C64.6566687,7.8000024 64.9699989,8.3566635 65.19,8.99 C65.4100011,9.6233365 65.52,10.2866632 65.52,10.98 Z M62.34,10.98 C62.34,10.6599984 62.2900005,10.3466682 62.19,10.04 C62.0899995,9.7333318 61.9433343,9.4633345 61.75,9.23 C61.5566657,8.9966655 61.3133348,8.8066674 61.02,8.66 C60.7266652,8.5133326 60.3866686,8.44 60,8.44 C59.6266648,8.44 59.2933348,8.5133326 59,8.66 C58.7066652,8.8066674 58.4566677,8.9999988 58.25,9.24 C58.0433323,9.4800012 57.8833339,9.7533318 57.77,10.06 C57.6566661,10.3666682 57.6,10.6799984 57.6,11 C57.6,11.3200016 57.6566661,11.6333318 57.77,11.94 C57.8833339,12.2466682 58.0433323,12.5199988 58.25,12.76 C58.4566677,13.0000012 58.7066652,13.1933326 59,13.34 C59.2933348,13.4866674 59.6266648,13.56 60,13.56 C60.3866686,13.56 60.7266652,13.4866674 61.02,13.34 C61.3133348,13.1933326 61.5566657,13.0000012 61.75,12.76 C61.9433343,12.5199988 62.0899995,12.2433349 62.19,11.93 C62.2900005,11.6166651 62.34,11.3000016 62.34,10.98 Z M67.62,16 L67.62,0.88 L70.94,0.88 L70.94,16 L67.62,16 Z M80.4,9.88 C80.4,9.3599974 80.2366683,8.9133352 79.91,8.54 C79.5833317,8.1666648 79.0933366,7.98 78.44,7.98 C78.1199984,7.98 77.826668,8.0299995 77.56,8.13 C77.293332,8.2300005 77.060001,8.3666658 76.86,8.54 C76.659999,8.7133342 76.5000006,8.9166655 76.38,9.15 C76.2599994,9.3833345 76.1933334,9.6266654 76.18,9.88 L80.4,9.88 Z M83.42,11.14 L83.42,11.54 C83.42,11.673334 83.4133334,11.7999994 83.4,11.92 L76.18,11.92 C76.2066668,12.2000014 76.2899993,12.4533322 76.43,12.68 C76.5700007,12.9066678 76.7499989,13.1033325 76.97,13.27 C77.1900011,13.4366675 77.4366653,13.5666662 77.71,13.66 C77.9833347,13.7533338 78.2666652,13.8 78.56,13.8 C79.0800026,13.8 79.5199982,13.7033343 79.88,13.51 C80.2400018,13.3166657 80.5333322,13.0666682 80.76,12.76 L83.04,14.2 C82.573331,14.8800034 81.9566705,15.4033315 81.19,15.77 C80.4233295,16.1366685 79.5333384,16.32 78.52,16.32 C77.7733296,16.32 77.06667,16.2033345 76.4,15.97 C75.73333,15.7366655 75.1500025,15.3966689 74.65,14.95 C74.1499975,14.5033311 73.7566681,13.9533366 73.47,13.3 C73.1833319,12.6466634 73.04,11.9000042 73.04,11.06 C73.04,10.2466626 73.1799986,9.5100033 73.46,8.85 C73.7400014,8.1899967 74.1199976,7.6300023 74.6,7.17 C75.0800024,6.7099977 75.6466634,6.3533346 76.3,6.1 C76.9533366,5.8466654 77.6599962,5.72 78.42,5.72 C79.153337,5.72 79.8266636,5.8433321 80.44,6.09 C81.0533364,6.3366679 81.5799978,6.693331 82.02,7.16 C82.4600022,7.626669 82.8033321,8.19333 83.05,8.86 C83.2966679,9.52667 83.42,10.2866624 83.42,11.14 Z M96.34,11.66 L95.92,11.66 C95.5599982,11.66 95.1966685,11.6766665 94.83,11.71 C94.4633315,11.7433335 94.1366681,11.8066662 93.85,11.9 C93.5633319,11.9933338 93.3266676,12.1299991 93.14,12.31 C92.9533324,12.4900009 92.86,12.7266652 92.86,13.02 C92.86,13.2066676 92.9033329,13.366666 92.99,13.5 C93.0766671,13.633334 93.186666,13.7399996 93.32,13.82 C93.453334,13.9000004 93.6066658,13.9566665 93.78,13.99 C93.9533342,14.0233335 94.1199992,14.04 94.28,14.04 C94.94667,14.04 95.4566649,13.8566685 95.81,13.49 C96.1633351,13.1233315 96.34,12.6266698 96.34,12 L96.34,11.66 Z M90.32,7.4 C90.9066696,6.8399972 91.5899961,6.4200014 92.37,6.14 C93.1500039,5.8599986 93.9466626,5.72 94.76,5.72 C95.6000042,5.72 96.3099971,5.8233323 96.89,6.03 C97.4700029,6.2366677 97.9399982,6.5566645 98.3,6.99 C98.6600018,7.4233355 98.9233325,7.9699967 99.09,8.63 C99.2566675,9.2900033 99.34,10.0733288 99.34,10.98 L99.34,16 L96.34,16 L96.34,14.94 L96.28,14.94 C96.0266654,15.3533354 95.6433359,15.6733322 95.13,15.9 C94.6166641,16.1266678 94.060003,16.24 93.46,16.24 C93.059998,16.24 92.6466688,16.1866672 92.22,16.08 C91.7933312,15.9733328 91.4033351,15.8000012 91.05,15.56 C90.6966649,15.3199988 90.4066678,15.000002 90.18,14.6 C89.9533322,14.199998 89.84,13.7066696 89.84,13.12 C89.84,12.3999964 90.0366647,11.8200022 90.43,11.38 C90.8233353,10.9399978 91.3299969,10.6000012 91.95,10.36 C92.5700031,10.1199988 93.2599962,9.9600004 94.02,9.88 C94.7800038,9.7999996 95.5199964,9.76 96.24,9.76 L96.24,9.6 C96.24,9.1066642 96.0666684,8.7433345 95.72,8.51 C95.3733316,8.2766655 94.9466692,8.16 94.44,8.16 C93.973331,8.16 93.5233355,8.259999 93.09,8.46 C92.6566645,8.660001 92.2866682,8.8999986 91.98,9.18 L90.32,7.4 Z M112.86,10.98 C112.86,11.6733368 112.753334,12.3399968 112.54,12.98 C112.326666,13.6200032 112.016669,14.1833309 111.61,14.67 C111.203331,15.1566691 110.70667,15.5466652 110.12,15.84 C109.53333,16.1333348 108.86667,16.28 108.12,16.28 C107.506664,16.28 106.926669,16.1566679 106.38,15.91 C105.833331,15.6633321 105.406668,15.3266688 105.1,14.9 L105.06,14.9 L105.06,20.8 L101.78,20.8 L101.78,6.04 L104.9,6.04 L104.9,7.26 L104.96,7.26 C105.266668,6.859998 105.689997,6.5100015 106.23,6.21 C106.770003,5.9099985 107.406663,5.76 108.14,5.76 C108.860004,5.76 109.51333,5.8999986 110.1,6.18 C110.68667,6.4600014 111.183331,6.8399976 111.59,7.32 C111.996669,7.8000024 112.309999,8.3566635 112.53,8.99 C112.750001,9.6233365 112.86,10.2866632 112.86,10.98 Z M109.68,10.98 C109.68,10.6599984 109.63,10.3466682 109.53,10.04 C109.429999,9.7333318 109.283334,9.4633345 109.09,9.23 C108.896666,8.9966655 108.653335,8.8066674 108.36,8.66 C108.066665,8.5133326 107.726669,8.44 107.34,8.44 C106.966665,8.44 106.633335,8.5133326 106.34,8.66 C106.046665,8.8066674 105.796668,8.9999988 105.59,9.24 C105.383332,9.4800012 105.223334,9.7533318 105.11,10.06 C104.996666,10.3666682 104.94,10.6799984 104.94,11 C104.94,11.3200016 104.996666,11.6333318 105.11,11.94 C105.223334,12.2466682 105.383332,12.5199988 105.59,12.76 C105.796668,13.0000012 106.046665,13.1933326 106.34,13.34 C106.633335,13.4866674 106.966665,13.56 107.34,13.56 C107.726669,13.56 108.066665,13.4866674 108.36,13.34 C108.653335,13.1933326 108.896666,13.0000012 109.09,12.76 C109.283334,12.5199988 109.429999,12.2433349 109.53,11.93 C109.63,11.6166651 109.68,11.3000016 109.68,10.98 Z M126,10.98 C126,11.6733368 125.893334,12.3399968 125.68,12.98 C125.466666,13.6200032 125.156669,14.1833309 124.75,14.67 C124.343331,15.1566691 123.84667,15.5466652 123.26,15.84 C122.67333,16.1333348 122.00667,16.28 121.26,16.28 C120.646664,16.28 120.066669,16.1566679 119.52,15.91 C118.973331,15.6633321 118.546668,15.3266688 118.24,14.9 L118.2,14.9 L118.2,20.8 L114.92,20.8 L114.92,6.04 L118.04,6.04 L118.04,7.26 L118.1,7.26 C118.406668,6.859998 118.829997,6.5100015 119.37,6.21 C119.910003,5.9099985 120.546663,5.76 121.28,5.76 C122.000004,5.76 122.65333,5.8999986 123.24,6.18 C123.82667,6.4600014 124.323331,6.8399976 124.73,7.32 C125.136669,7.8000024 125.449999,8.3566635 125.67,8.99 C125.890001,9.6233365 126,10.2866632 126,10.98 Z M122.82,10.98 C122.82,10.6599984 122.77,10.3466682 122.67,10.04 C122.569999,9.7333318 122.423334,9.4633345 122.23,9.23 C122.036666,8.9966655 121.793335,8.8066674 121.5,8.66 C121.206665,8.5133326 120.866669,8.44 120.48,8.44 C120.106665,8.44 119.773335,8.5133326 119.48,8.66 C119.186665,8.8066674 118.936668,8.9999988 118.73,9.24 C118.523332,9.4800012 118.363334,9.7533318 118.25,10.06 C118.136666,10.3666682 118.08,10.6799984 118.08,11 C118.08,11.3200016 118.136666,11.6333318 118.25,11.94 C118.363334,12.2466682 118.523332,12.5199988 118.73,12.76 C118.936668,13.0000012 119.186665,13.1933326 119.48,13.34 C119.773335,13.4866674 120.106665,13.56 120.48,13.56 C120.866669,13.56 121.206665,13.4866674 121.5,13.34 C121.793335,13.1933326 122.036666,13.0000012 122.23,12.76 C122.423334,12.5199988 122.569999,12.2433349 122.67,11.93 C122.77,11.6166651 122.82,11.3000016 122.82,10.98 Z"></path>
                </g>
                <g transform="translate(1.000000, 0.000000)" fill="#8091A5" id="The-Java">
                    <path d="M7.02,16 L1.4,16 L1.5,15.42 C1.8200016,15.2999994 2.1366651,15.2033337 2.45,15.13 C2.7633349,15.0566663 3.1066648,14.9933336 3.48,14.94 L6,3.04 L2.94,3.04 L1.28,5.9 L0.76,5.9 C0.7733334,5.633332 0.8033331,5.3300017 0.85,4.99 C0.8966669,4.6499983 0.9466664,4.3033351 1,3.95 C1.0533336,3.5966649 1.1099997,3.2500017 1.17,2.91 C1.2300003,2.5699983 1.293333,2.266668 1.36,2 L12.96,2 C12.9066664,2.266668 12.8400004,2.566665 12.76,2.9 C12.6799996,3.233335 12.5933338,3.5766649 12.5,3.93 C12.4066662,4.2833351 12.3100005,4.6299983 12.21,4.97 C12.1099995,5.3100017 12.0133338,5.6199986 11.92,5.9 L11.4,5.9 L10.98,3.04 L7.92,3.04 L5.4,14.94 C5.7200016,15.006667 6.0233319,15.073333 6.31,15.14 C6.5966681,15.206667 6.8666654,15.2999994 7.12,15.42 L7.02,16 Z M13.26,2.18 L13.26,1.72 C13.460001,1.6399996 13.6833321,1.5566671 13.93,1.47 C14.1766679,1.3833329 14.433332,1.3033337 14.7,1.23 C14.966668,1.1566663 15.2266654,1.0966669 15.48,1.05 C15.7333346,1.0033331 15.9733322,0.9733334 16.2,0.96 L16.62,1.14 L14.82,9.54 L14.92,9.54 C15.1733346,9.006664 15.4599984,8.5100023 15.78,8.05 C16.1000016,7.5899977 16.4366649,7.1900017 16.79,6.85 C17.1433351,6.5099983 17.5133314,6.2433343 17.9,6.05 C18.2866686,5.8566657 18.679998,5.76 19.08,5.76 C19.6933364,5.76 20.1366653,5.9366649 20.41,6.29 C20.6833347,6.6433351 20.82,7.0799974 20.82,7.6 C20.82,7.9600018 20.786667,8.3466646 20.72,8.76 C20.653333,9.1733354 20.5733338,9.5733314 20.48,9.96 L19.34,14.88 L20.82,14.88 L20.82,15.4 C20.553332,15.6133344 20.2333352,15.786666 19.86,15.92 C19.4866648,16.053334 19.1133352,16.12 18.74,16.12 C18.3533314,16.12 18.0866674,16.0400008 17.94,15.88 C17.7933326,15.7199992 17.72,15.5466676 17.72,15.36 C17.72,15.1199988 17.753333,14.8500015 17.82,14.55 C17.886667,14.2499985 17.953333,13.9466682 18.02,13.64 L18.74,10.3 C18.8333338,9.8866646 18.9166663,9.5000018 18.99,9.14 C19.0633337,8.7799982 19.1,8.433335 19.1,8.1 C19.1,7.7933318 19.033334,7.5333344 18.9,7.32 C18.766666,7.1066656 18.5866678,7 18.36,7 C17.9466646,7 17.5466686,7.1466652 17.16,7.44 C16.7733314,7.7333348 16.413335,8.0866646 16.08,8.5 C15.746665,8.9133354 15.4533346,9.3433311 15.2,9.79 C14.9466654,10.2366689 14.753334,10.6066652 14.62,10.9 L13.56,16 L11.88,16 L14.62,2.36 L13.26,2.18 Z M29.9,14.22 C29.7799994,14.4733346 29.6066678,14.7199988 29.38,14.96 C29.1533322,15.2000012 28.8866682,15.4166657 28.58,15.61 C28.2733318,15.8033343 27.9266686,15.9566661 27.54,16.07 C27.1533314,16.1833339 26.7400022,16.24 26.3,16.24 C25.1933278,16.24 24.3433363,15.9233365 23.75,15.29 C23.1566637,14.6566635 22.86,13.7800056 22.86,12.66 C22.86,11.7133286 22.993332,10.8200042 23.26,9.98 C23.526668,9.1399958 23.8999976,8.4066698 24.38,7.78 C24.8600024,7.1533302 25.4433299,6.6600018 26.13,6.3 C26.8166701,5.9399982 27.5799958,5.76 28.42,5.76 C29.0600032,5.76 29.6099977,5.9233317 30.07,6.25 C30.5300023,6.5766683 30.76,7.0599968 30.76,7.7 C30.76,8.6466714 30.2900047,9.3933306 29.35,9.94 C28.4099953,10.4866694 26.8933438,10.8399992 24.8,11 C24.7466664,11.2266678 24.7100001,11.4466656 24.69,11.66 C24.6699999,11.8733344 24.66,12.079999 24.66,12.28 C24.66,13.080004 24.8633313,13.7333308 25.27,14.24 C25.6766687,14.7466692 26.2733294,15 27.06,15 C27.3133346,15 27.5633321,14.9600004 27.81,14.88 C28.0566679,14.7999996 28.2899989,14.7000006 28.51,14.58 C28.7300011,14.4599994 28.9299991,14.333334 29.11,14.2 C29.2900009,14.066666 29.446666,13.9466672 29.58,13.84 L29.9,14.22 Z M27.8,6.62 C27.2266638,6.6333334 26.6933358,6.9033307 26.2,7.43 C25.7066642,7.9566693 25.2866684,8.8599936 24.94,10.14 C26.2333398,10.0999998 27.2399964,9.8766687 27.96,9.47 C28.6800036,9.0633313 29.04,8.5000036 29.04,7.78 C29.04,7.4999986 28.9566675,7.2400012 28.79,7 C28.6233325,6.7599988 28.2933358,6.6333334 27.8,6.62 Z M38.72,2 L43.82,2 L43.72,2.58 C43.453332,2.7000006 43.1666682,2.7999996 42.86,2.88 C42.5533318,2.9600004 42.266668,3.0266664 42,3.08 L39.64,14.28 C39.439999,15.2000046 39.1700017,15.959997 38.83,16.56 C38.4899983,17.160003 38.1233353,17.6433315 37.73,18.01 C37.3366647,18.3766685 36.9433353,18.6499991 36.55,18.83 C36.1566647,19.0100009 35.8066682,19.133333 35.5,19.2 L35.36,18.9 C35.626668,18.6866656 35.8699989,18.4700011 36.09,18.25 C36.3100011,18.0299989 36.5133324,17.7566683 36.7,17.43 C36.8866676,17.1033317 37.0599992,16.706669 37.22,16.24 C37.3800008,15.773331 37.5333326,15.1933368 37.68,14.5 L40.08,3.08 C39.5066638,2.946666 39.0133354,2.780001 38.6,2.58 L38.72,2 Z M46.4,15 C46.7600018,15 47.1199982,14.8300017 47.48,14.49 C47.8400018,14.1499983 48.1799984,13.7400024 48.5,13.26 C48.8200016,12.7799976 49.1066654,12.2800026 49.36,11.76 C49.6133346,11.2399974 49.8133326,10.8066684 49.96,10.46 L50.6,7.04 C50.4133324,6.906666 50.2333342,6.8133336 50.06,6.76 C49.8866658,6.7066664 49.6466682,6.68 49.34,6.68 C48.7266636,6.68 48.1700025,6.8699981 47.67,7.25 C47.1699975,7.6300019 46.7433351,8.119997 46.39,8.72 C46.0366649,9.320003 45.7633343,9.986663 45.57,10.72 C45.3766657,11.453337 45.28,12.1733298 45.28,12.88 C45.28,13.5600034 45.3633325,14.0833315 45.53,14.45 C45.6966675,14.8166685 45.9866646,15 46.4,15 Z M49.56,12.08 C49.3866658,12.5600024 49.1700013,13.0466642 48.91,13.54 C48.6499987,14.0333358 48.3500017,14.479998 48.01,14.88 C47.6699983,15.280002 47.2933354,15.6066654 46.88,15.86 C46.4666646,16.1133346 46.026669,16.24 45.56,16.24 C44.1733264,16.24 43.48,15.2333434 43.48,13.22 C43.48,12.286662 43.613332,11.3766711 43.88,10.49 C44.146668,9.6033289 44.5333308,8.8133368 45.04,8.12 C45.5466692,7.4266632 46.1633297,6.8700021 46.89,6.45 C47.6166703,6.0299979 48.4399954,5.82 49.36,5.82 C49.693335,5.82 49.959999,5.8499997 50.16,5.91 C50.360001,5.9700003 50.5999986,6.0599994 50.88,6.18 C51.413336,5.8999986 51.9733304,5.76 52.56,5.76 L50.76,14.9 L52.22,14.9 L52.22,15.4 C51.953332,15.6133344 51.6333352,15.786666 51.26,15.92 C50.8866648,16.053334 50.5200018,16.12 50.16,16.12 C49.7733314,16.12 49.4966675,16.0366675 49.33,15.87 C49.1633325,15.7033325 49.08,15.5266676 49.08,15.34 C49.08,15.0999988 49.1266662,14.7066694 49.22,14.16 C49.3133338,13.6133306 49.4533324,12.9200042 49.64,12.08 L49.56,12.08 Z M58.3,12.98 C58.7800024,12.179996 59.2066648,11.4033371 59.58,10.65 C59.9533352,9.8966629 60.273332,9.1400038 60.54,8.38 C60.54,8.2333326 60.5233335,8.0433345 60.49,7.81 C60.4566665,7.5766655 60.4233335,7.3400012 60.39,7.1 C60.3566665,6.8599988 60.3200002,6.6366677 60.28,6.43 C60.2399998,6.2233323 60.2066668,6.0800004 60.18,6 C60.5666686,5.8399992 60.9633313,5.7566667 61.37,5.75 C61.7766687,5.7433333 62.1333318,5.8266658 62.44,6 C62.239999,6.8266708 61.9666684,7.6699957 61.62,8.53 C61.2733316,9.3900043 60.8766689,10.2466624 60.43,11.1 C59.9833311,11.9533376 59.4966693,12.7933292 58.97,13.62 C58.4433307,14.4466708 57.8933362,15.2399962 57.32,16 L56.38,16.24 L54.9,7.16 L53.62,7 L53.62,6.5 C53.7000004,6.4466664 53.8199992,6.3766671 53.98,6.29 C54.1400008,6.2033329 54.3166657,6.1200004 54.51,6.04 C54.7033343,5.9599996 54.9033323,5.8933336 55.11,5.84 C55.3166677,5.7866664 55.5133324,5.76 55.7,5.76 C55.9933348,5.76 56.2033327,5.8333326 56.33,5.98 C56.4566673,6.1266674 56.5399998,6.3066656 56.58,6.52 L57.5,13.02 L57.6,14.28 L57.64,14.28 L58.3,12.98 Z M66.04,15 C66.4000018,15 66.7599982,14.8300017 67.12,14.49 C67.4800018,14.1499983 67.8199984,13.7400024 68.14,13.26 C68.4600016,12.7799976 68.7466654,12.2800026 69,11.76 C69.2533346,11.2399974 69.4533326,10.8066684 69.6,10.46 L70.24,7.04 C70.0533324,6.906666 69.8733342,6.8133336 69.7,6.76 C69.5266658,6.7066664 69.2866682,6.68 68.98,6.68 C68.3666636,6.68 67.8100025,6.8699981 67.31,7.25 C66.8099975,7.6300019 66.3833351,8.119997 66.03,8.72 C65.6766649,9.320003 65.4033343,9.986663 65.21,10.72 C65.0166657,11.453337 64.92,12.1733298 64.92,12.88 C64.92,13.5600034 65.0033325,14.0833315 65.17,14.45 C65.3366675,14.8166685 65.6266646,15 66.04,15 Z M69.2,12.08 C69.0266658,12.5600024 68.8100013,13.0466642 68.55,13.54 C68.2899987,14.0333358 67.9900017,14.479998 67.65,14.88 C67.3099983,15.280002 66.9333354,15.6066654 66.52,15.86 C66.1066646,16.1133346 65.666669,16.24 65.2,16.24 C63.8133264,16.24 63.12,15.2333434 63.12,13.22 C63.12,12.286662 63.253332,11.3766711 63.52,10.49 C63.786668,9.6033289 64.1733308,8.8133368 64.68,8.12 C65.1866692,7.4266632 65.8033297,6.8700021 66.53,6.45 C67.2566703,6.0299979 68.0799954,5.82 69,5.82 C69.333335,5.82 69.599999,5.8499997 69.8,5.91 C70.000001,5.9700003 70.2399986,6.0599994 70.52,6.18 C71.053336,5.8999986 71.6133304,5.76 72.2,5.76 L70.4,14.9 L71.86,14.9 L71.86,15.4 C71.593332,15.6133344 71.2733352,15.786666 70.9,15.92 C70.5266648,16.053334 70.1600018,16.12 69.8,16.12 C69.4133314,16.12 69.1366675,16.0366675 68.97,15.87 C68.8033325,15.7033325 68.72,15.5266676 68.72,15.34 C68.72,15.0999988 68.7666662,14.7066694 68.86,14.16 C68.9533338,13.6133306 69.0933324,12.9200042 69.28,12.08 L69.2,12.08 Z"></path>
                </g>
            </g>
        </g>
    </g>
</svg>