<?xml version="1.0" encoding="UTF-8"?>
<svg width="171px" height="43px" viewBox="0 0 171 43" version="1.1" xmlns="http://www.w3.org/2000/svg" xmlns:xlink="http://www.w3.org/1999/xlink">
    <!-- Generator: Sketch 48.1 (47250) - http://www.bohemiancoding.com/sketch -->
    <title>the-example-app-logo-ruby</title>
    <desc>Created with Sketch.</desc>
    <defs></defs>
    <g id="Page-1" stroke="none" stroke-width="1" fill="none" fill-rule="evenodd">
        <g id="the-example-app-logo-ruby">
            <g id="Group" transform="translate(0.000000, 2.000000)" fill-rule="nonzero">
                <polygon id="Shape" fill="#D9453F" points="3.75 37 3.75 29.9 28 29.9 28 37"></polygon>
                <circle id="Oval" fill="#F5A623" cx="9.3" cy="14.3" r="9.3"></circle>
                <polygon id="Shape" fill="#3C80CF" points="35 27.6 19 0.4 35 0.4"></polygon>
            </g>
            <g id="Group" transform="translate(45.000000, 0.000000)">
                <g transform="translate(0.000000, 18.000000)" fill="#000000" id="example-app">
                    <path d="M8.14,13.88 C8.14,13.3599974 7.9766683,12.9133352 7.65,12.54 C7.3233317,12.1666648 6.8333366,11.98 6.18,11.98 C5.8599984,11.98 5.566668,12.0299995 5.3,12.13 C5.033332,12.2300005 4.800001,12.3666658 4.6,12.54 C4.399999,12.7133342 4.2400006,12.9166655 4.12,13.15 C3.9999994,13.3833345 3.9333334,13.6266654 3.92,13.88 L8.14,13.88 Z M11.16,15.14 L11.16,15.54 C11.16,15.673334 11.1533334,15.7999994 11.14,15.92 L3.92,15.92 C3.9466668,16.2000014 4.0299993,16.4533322 4.17,16.68 C4.3100007,16.9066678 4.4899989,17.1033325 4.71,17.27 C4.9300011,17.4366675 5.1766653,17.5666662 5.45,17.66 C5.7233347,17.7533338 6.0066652,17.8 6.3,17.8 C6.8200026,17.8 7.2599982,17.7033343 7.62,17.51 C7.9800018,17.3166657 8.2733322,17.0666682 8.5,16.76 L10.78,18.2 C10.313331,18.8800034 9.6966705,19.4033315 8.93,19.77 C8.1633295,20.1366685 7.2733384,20.32 6.26,20.32 C5.5133296,20.32 4.80667,20.2033345 4.14,19.97 C3.47333,19.7366655 2.8900025,19.3966689 2.39,18.95 C1.8899975,18.5033311 1.4966681,17.9533366 1.21,17.3 C0.9233319,16.6466634 0.78,15.9000042 0.78,15.06 C0.78,14.2466626 0.9199986,13.5100033 1.2,12.85 C1.4800014,12.1899967 1.8599976,11.6300023 2.34,11.17 C2.8200024,10.7099977 3.3866634,10.3533346 4.04,10.1 C4.6933366,9.8466654 5.3999962,9.72 6.16,9.72 C6.893337,9.72 7.5666636,9.8433321 8.18,10.09 C8.7933364,10.3366679 9.3199978,10.693331 9.76,11.16 C10.2000022,11.626669 10.5433321,12.19333 10.79,12.86 C11.0366679,13.52667 11.16,14.2866624 11.16,15.14 Z M19.56,20 L17.42,16.94 L15.22,20 L11.42,20 L15.4,14.78 L11.8,10.04 L15.62,10.04 L17.48,12.7 L19.36,10.04 L23.06,10.04 L19.48,14.78 L23.42,20 L19.56,20 Z M30.52,15.66 L30.1,15.66 C29.7399982,15.66 29.3766685,15.6766665 29.01,15.71 C28.6433315,15.7433335 28.3166681,15.8066662 28.03,15.9 C27.7433319,15.9933338 27.5066676,16.1299991 27.32,16.31 C27.1333324,16.4900009 27.04,16.7266652 27.04,17.02 C27.04,17.2066676 27.0833329,17.366666 27.17,17.5 C27.2566671,17.633334 27.366666,17.7399996 27.5,17.82 C27.633334,17.9000004 27.7866658,17.9566665 27.96,17.99 C28.1333342,18.0233335 28.2999992,18.04 28.46,18.04 C29.12667,18.04 29.6366649,17.8566685 29.99,17.49 C30.3433351,17.1233315 30.52,16.6266698 30.52,16 L30.52,15.66 Z M24.5,11.4 C25.0866696,10.8399972 25.7699961,10.4200014 26.55,10.14 C27.3300039,9.8599986 28.1266626,9.72 28.94,9.72 C29.7800042,9.72 30.4899971,9.8233323 31.07,10.03 C31.6500029,10.2366677 32.1199982,10.5566645 32.48,10.99 C32.8400018,11.4233355 33.1033325,11.9699967 33.27,12.63 C33.4366675,13.2900033 33.52,14.0733288 33.52,14.98 L33.52,20 L30.52,20 L30.52,18.94 L30.46,18.94 C30.2066654,19.3533354 29.8233359,19.6733322 29.31,19.9 C28.7966641,20.1266678 28.240003,20.24 27.64,20.24 C27.239998,20.24 26.8266688,20.1866672 26.4,20.08 C25.9733312,19.9733328 25.5833351,19.8000012 25.23,19.56 C24.8766649,19.3199988 24.5866678,19.000002 24.36,18.6 C24.1333322,18.199998 24.02,17.7066696 24.02,17.12 C24.02,16.3999964 24.2166647,15.8200022 24.61,15.38 C25.0033353,14.9399978 25.5099969,14.6000012 26.13,14.36 C26.7500031,14.1199988 27.4399962,13.9600004 28.2,13.88 C28.9600038,13.7999996 29.6999964,13.76 30.42,13.76 L30.42,13.6 C30.42,13.1066642 30.2466684,12.7433345 29.9,12.51 C29.5533316,12.2766655 29.1266692,12.16 28.62,12.16 C28.153331,12.16 27.7033355,12.259999 27.27,12.46 C26.8366645,12.660001 26.4666682,12.8999986 26.16,13.18 L24.5,11.4 Z M48.68,20 L48.68,14.56 C48.68,14.2799986 48.6600002,14.0100013 48.62,13.75 C48.5799998,13.4899987 48.5066672,13.2666676 48.4,13.08 C48.2933328,12.8933324 48.1500009,12.7433339 47.97,12.63 C47.7899991,12.5166661 47.5533348,12.46 47.26,12.46 C46.9799986,12.46 46.7366677,12.5199994 46.53,12.64 C46.3233323,12.7600006 46.1500007,12.919999 46.01,13.12 C45.8699993,13.320001 45.766667,13.5499987 45.7,13.81 C45.633333,14.0700013 45.6,14.3399986 45.6,14.62 L45.6,20 L42.32,20 L42.32,14.32 C42.32,13.7466638 42.2066678,13.293335 41.98,12.96 C41.7533322,12.626665 41.3933358,12.46 40.9,12.46 C40.3799974,12.46 39.9766681,12.6666646 39.69,13.08 C39.4033319,13.4933354 39.26,13.999997 39.26,14.6 L39.26,20 L35.96,20 L35.96,10.04 L39.14,10.04 L39.14,11.42 L39.18,11.42 C39.3000006,11.2066656 39.4499991,11.000001 39.63,10.8 C39.8100009,10.599999 40.0266654,10.4233341 40.28,10.27 C40.5333346,10.1166659 40.8166651,9.9933338 41.13,9.9 C41.4433349,9.8066662 41.7866648,9.76 42.16,9.76 C42.8800036,9.76 43.4899975,9.9066652 43.99,10.2 C44.4900025,10.4933348 44.8799986,10.9133306 45.16,11.46 C45.493335,10.9399974 45.9199974,10.5266682 46.44,10.22 C46.9600026,9.9133318 47.5933296,9.76 48.34,9.76 C49.0200034,9.76 49.5899977,9.8833321 50.05,10.13 C50.5100023,10.3766679 50.8799986,10.6966647 51.16,11.09 C51.4400014,11.4833353 51.6433327,11.9233309 51.77,12.41 C51.8966673,12.8966691 51.96,13.373331 51.96,13.84 L51.96,20 L48.68,20 Z M65.52,14.98 C65.52,15.6733368 65.4133344,16.3399968 65.2,16.98 C64.9866656,17.6200032 64.6766687,18.1833309 64.27,18.67 C63.8633313,19.1566691 63.3666696,19.5466652 62.78,19.84 C62.1933304,20.1333348 61.5266704,20.28 60.78,20.28 C60.1666636,20.28 59.5866694,20.1566679 59.04,19.91 C58.4933306,19.6633321 58.0666682,19.3266688 57.76,18.9 L57.72,18.9 L57.72,24.8 L54.44,24.8 L54.44,10.04 L57.56,10.04 L57.56,11.26 L57.62,11.26 C57.9266682,10.859998 58.3499973,10.5100015 58.89,10.21 C59.4300027,9.9099985 60.066663,9.76 60.8,9.76 C61.5200036,9.76 62.1733304,9.8999986 62.76,10.18 C63.3466696,10.4600014 63.8433313,10.8399976 64.25,11.32 C64.6566687,11.8000024 64.9699989,12.3566635 65.19,12.99 C65.4100011,13.6233365 65.52,14.2866632 65.52,14.98 Z M62.34,14.98 C62.34,14.6599984 62.2900005,14.3466682 62.19,14.04 C62.0899995,13.7333318 61.9433343,13.4633345 61.75,13.23 C61.5566657,12.9966655 61.3133348,12.8066674 61.02,12.66 C60.7266652,12.5133326 60.3866686,12.44 60,12.44 C59.6266648,12.44 59.2933348,12.5133326 59,12.66 C58.7066652,12.8066674 58.4566677,12.9999988 58.25,13.24 C58.0433323,13.4800012 57.8833339,13.7533318 57.77,14.06 C57.6566661,14.3666682 57.6,14.6799984 57.6,15 C57.6,15.3200016 57.6566661,15.6333318 57.77,15.94 C57.8833339,16.2466682 58.0433323,16.5199988 58.25,16.76 C58.4566677,17.0000012 58.7066652,17.1933326 59,17.34 C59.2933348,17.4866674 59.6266648,17.56 60,17.56 C60.3866686,17.56 60.7266652,17.4866674 61.02,17.34 C61.3133348,17.1933326 61.5566657,17.0000012 61.75,16.76 C61.9433343,16.5199988 62.0899995,16.2433349 62.19,15.93 C62.2900005,15.6166651 62.34,15.3000016 62.34,14.98 Z M67.62,20 L67.62,4.88 L70.94,4.88 L70.94,20 L67.62,20 Z M80.4,13.88 C80.4,13.3599974 80.2366683,12.9133352 79.91,12.54 C79.5833317,12.1666648 79.0933366,11.98 78.44,11.98 C78.1199984,11.98 77.826668,12.0299995 77.56,12.13 C77.293332,12.2300005 77.060001,12.3666658 76.86,12.54 C76.659999,12.7133342 76.5000006,12.9166655 76.38,13.15 C76.2599994,13.3833345 76.1933334,13.6266654 76.18,13.88 L80.4,13.88 Z M83.42,15.14 L83.42,15.54 C83.42,15.673334 83.4133334,15.7999994 83.4,15.92 L76.18,15.92 C76.2066668,16.2000014 76.2899993,16.4533322 76.43,16.68 C76.5700007,16.9066678 76.7499989,17.1033325 76.97,17.27 C77.1900011,17.4366675 77.4366653,17.5666662 77.71,17.66 C77.9833347,17.7533338 78.2666652,17.8 78.56,17.8 C79.0800026,17.8 79.5199982,17.7033343 79.88,17.51 C80.2400018,17.3166657 80.5333322,17.0666682 80.76,16.76 L83.04,18.2 C82.573331,18.8800034 81.9566705,19.4033315 81.19,19.77 C80.4233295,20.1366685 79.5333384,20.32 78.52,20.32 C77.7733296,20.32 77.06667,20.2033345 76.4,19.97 C75.73333,19.7366655 75.1500025,19.3966689 74.65,18.95 C74.1499975,18.5033311 73.7566681,17.9533366 73.47,17.3 C73.1833319,16.6466634 73.04,15.9000042 73.04,15.06 C73.04,14.2466626 73.1799986,13.5100033 73.46,12.85 C73.7400014,12.1899967 74.1199976,11.6300023 74.6,11.17 C75.0800024,10.7099977 75.6466634,10.3533346 76.3,10.1 C76.9533366,9.8466654 77.6599962,9.72 78.42,9.72 C79.153337,9.72 79.8266636,9.8433321 80.44,10.09 C81.0533364,10.3366679 81.5799978,10.693331 82.02,11.16 C82.4600022,11.626669 82.8033321,12.19333 83.05,12.86 C83.2966679,13.52667 83.42,14.2866624 83.42,15.14 Z M96.34,15.66 L95.92,15.66 C95.5599982,15.66 95.1966685,15.6766665 94.83,15.71 C94.4633315,15.7433335 94.1366681,15.8066662 93.85,15.9 C93.5633319,15.9933338 93.3266676,16.1299991 93.14,16.31 C92.9533324,16.4900009 92.86,16.7266652 92.86,17.02 C92.86,17.2066676 92.9033329,17.366666 92.99,17.5 C93.0766671,17.633334 93.186666,17.7399996 93.32,17.82 C93.453334,17.9000004 93.6066658,17.9566665 93.78,17.99 C93.9533342,18.0233335 94.1199992,18.04 94.28,18.04 C94.94667,18.04 95.4566649,17.8566685 95.81,17.49 C96.1633351,17.1233315 96.34,16.6266698 96.34,16 L96.34,15.66 Z M90.32,11.4 C90.9066696,10.8399972 91.5899961,10.4200014 92.37,10.14 C93.1500039,9.8599986 93.9466626,9.72 94.76,9.72 C95.6000042,9.72 96.3099971,9.8233323 96.89,10.03 C97.4700029,10.2366677 97.9399982,10.5566645 98.3,10.99 C98.6600018,11.4233355 98.9233325,11.9699967 99.09,12.63 C99.2566675,13.2900033 99.34,14.0733288 99.34,14.98 L99.34,20 L96.34,20 L96.34,18.94 L96.28,18.94 C96.0266654,19.3533354 95.6433359,19.6733322 95.13,19.9 C94.6166641,20.1266678 94.060003,20.24 93.46,20.24 C93.059998,20.24 92.6466688,20.1866672 92.22,20.08 C91.7933312,19.9733328 91.4033351,19.8000012 91.05,19.56 C90.6966649,19.3199988 90.4066678,19.000002 90.18,18.6 C89.9533322,18.199998 89.84,17.7066696 89.84,17.12 C89.84,16.3999964 90.0366647,15.8200022 90.43,15.38 C90.8233353,14.9399978 91.3299969,14.6000012 91.95,14.36 C92.5700031,14.1199988 93.2599962,13.9600004 94.02,13.88 C94.7800038,13.7999996 95.5199964,13.76 96.24,13.76 L96.24,13.6 C96.24,13.1066642 96.0666684,12.7433345 95.72,12.51 C95.3733316,12.2766655 94.9466692,12.16 94.44,12.16 C93.973331,12.16 93.5233355,12.259999 93.09,12.46 C92.6566645,12.660001 92.2866682,12.8999986 91.98,13.18 L90.32,11.4 Z M112.86,14.98 C112.86,15.6733368 112.753334,16.3399968 112.54,16.98 C112.326666,17.6200032 112.016669,18.1833309 111.61,18.67 C111.203331,19.1566691 110.70667,19.5466652 110.12,19.84 C109.53333,20.1333348 108.86667,20.28 108.12,20.28 C107.506664,20.28 106.926669,20.1566679 106.38,19.91 C105.833331,19.6633321 105.406668,19.3266688 105.1,18.9 L105.06,18.9 L105.06,24.8 L101.78,24.8 L101.78,10.04 L104.9,10.04 L104.9,11.26 L104.96,11.26 C105.266668,10.859998 105.689997,10.5100015 106.23,10.21 C106.770003,9.9099985 107.406663,9.76 108.14,9.76 C108.860004,9.76 109.51333,9.8999986 110.1,10.18 C110.68667,10.4600014 111.183331,10.8399976 111.59,11.32 C111.996669,11.8000024 112.309999,12.3566635 112.53,12.99 C112.750001,13.6233365 112.86,14.2866632 112.86,14.98 Z M109.68,14.98 C109.68,14.6599984 109.63,14.3466682 109.53,14.04 C109.429999,13.7333318 109.283334,13.4633345 109.09,13.23 C108.896666,12.9966655 108.653335,12.8066674 108.36,12.66 C108.066665,12.5133326 107.726669,12.44 107.34,12.44 C106.966665,12.44 106.633335,12.5133326 106.34,12.66 C106.046665,12.8066674 105.796668,12.9999988 105.59,13.24 C105.383332,13.4800012 105.223334,13.7533318 105.11,14.06 C104.996666,14.3666682 104.94,14.6799984 104.94,15 C104.94,15.3200016 104.996666,15.6333318 105.11,15.94 C105.223334,16.2466682 105.383332,16.5199988 105.59,16.76 C105.796668,17.0000012 106.046665,17.1933326 106.34,17.34 C106.633335,17.4866674 106.966665,17.56 107.34,17.56 C107.726669,17.56 108.066665,17.4866674 108.36,17.34 C108.653335,17.1933326 108.896666,17.0000012 109.09,16.76 C109.283334,16.5199988 109.429999,16.2433349 109.53,15.93 C109.63,15.6166651 109.68,15.3000016 109.68,14.98 Z M126,14.98 C126,15.6733368 125.893334,16.3399968 125.68,16.98 C125.466666,17.6200032 125.156669,18.1833309 124.75,18.67 C124.343331,19.1566691 123.84667,19.5466652 123.26,19.84 C122.67333,20.1333348 122.00667,20.28 121.26,20.28 C120.646664,20.28 120.066669,20.1566679 119.52,19.91 C118.973331,19.6633321 118.546668,19.3266688 118.24,18.9 L118.2,18.9 L118.2,24.8 L114.92,24.8 L114.92,10.04 L118.04,10.04 L118.04,11.26 L118.1,11.26 C118.406668,10.859998 118.829997,10.5100015 119.37,10.21 C119.910003,9.9099985 120.546663,9.76 121.28,9.76 C122.000004,9.76 122.65333,9.8999986 123.24,10.18 C123.82667,10.4600014 124.323331,10.8399976 124.73,11.32 C125.136669,11.8000024 125.449999,12.3566635 125.67,12.99 C125.890001,13.6233365 126,14.2866632 126,14.98 Z M122.82,14.98 C122.82,14.6599984 122.77,14.3466682 122.67,14.04 C122.569999,13.7333318 122.423334,13.4633345 122.23,13.23 C122.036666,12.9966655 121.793335,12.8066674 121.5,12.66 C121.206665,12.5133326 120.866669,12.44 120.48,12.44 C120.106665,12.44 119.773335,12.5133326 119.48,12.66 C119.186665,12.8066674 118.936668,12.9999988 118.73,13.24 C118.523332,13.4800012 118.363334,13.7533318 118.25,14.06 C118.136666,14.3666682 118.08,14.6799984 118.08,15 C118.08,15.3200016 118.136666,15.6333318 118.25,15.94 C118.363334,16.2466682 118.523332,16.5199988 118.73,16.76 C118.936668,17.0000012 119.186665,17.1933326 119.48,17.34 C119.773335,17.4866674 120.106665,17.56 120.48,17.56 C120.866669,17.56 121.206665,17.4866674 121.5,17.34 C121.793335,17.1933326 122.036666,17.0000012 122.23,16.76 C122.423334,16.5199988 122.569999,16.2433349 122.67,15.93 C122.77,15.6166651 122.82,15.3000016 122.82,14.98 Z"></path>
                </g>
                <g transform="translate(1.000000, 0.000000)" fill="#8091A5" id="The-Ruby">
                    <path d="M7.02,16 L1.4,16 L1.5,15.42 C1.8200016,15.2999994 2.1366651,15.2033337 2.45,15.13 C2.7633349,15.0566663 3.1066648,14.9933336 3.48,14.94 L6,3.04 L2.94,3.04 L1.28,5.9 L0.76,5.9 C0.7733334,5.633332 0.8033331,5.3300017 0.85,4.99 C0.8966669,4.6499983 0.9466664,4.3033351 1,3.95 C1.0533336,3.5966649 1.1099997,3.2500017 1.17,2.91 C1.2300003,2.5699983 1.293333,2.266668 1.36,2 L12.96,2 C12.9066664,2.266668 12.8400004,2.566665 12.76,2.9 C12.6799996,3.233335 12.5933338,3.5766649 12.5,3.93 C12.4066662,4.2833351 12.3100005,4.6299983 12.21,4.97 C12.1099995,5.3100017 12.0133338,5.6199986 11.92,5.9 L11.4,5.9 L10.98,3.04 L7.92,3.04 L5.4,14.94 C5.7200016,15.006667 6.0233319,15.073333 6.31,15.14 C6.5966681,15.206667 6.8666654,15.2999994 7.12,15.42 L7.02,16 Z M13.26,2.18 L13.26,1.72 C13.460001,1.6399996 13.6833321,1.5566671 13.93,1.47 C14.1766679,1.3833329 14.433332,1.3033337 14.7,1.23 C14.966668,1.1566663 15.2266654,1.0966669 15.48,1.05 C15.7333346,1.0033331 15.9733322,0.9733334 16.2,0.96 L16.62,1.14 L14.82,9.54 L14.92,9.54 C15.1733346,9.006664 15.4599984,8.5100023 15.78,8.05 C16.1000016,7.5899977 16.4366649,7.1900017 16.79,6.85 C17.1433351,6.5099983 17.5133314,6.2433343 17.9,6.05 C18.2866686,5.8566657 18.679998,5.76 19.08,5.76 C19.6933364,5.76 20.1366653,5.9366649 20.41,6.29 C20.6833347,6.6433351 20.82,7.0799974 20.82,7.6 C20.82,7.9600018 20.786667,8.3466646 20.72,8.76 C20.653333,9.1733354 20.5733338,9.5733314 20.48,9.96 L19.34,14.88 L20.82,14.88 L20.82,15.4 C20.553332,15.6133344 20.2333352,15.786666 19.86,15.92 C19.4866648,16.053334 19.1133352,16.12 18.74,16.12 C18.3533314,16.12 18.0866674,16.0400008 17.94,15.88 C17.7933326,15.7199992 17.72,15.5466676 17.72,15.36 C17.72,15.1199988 17.753333,14.8500015 17.82,14.55 C17.886667,14.2499985 17.953333,13.9466682 18.02,13.64 L18.74,10.3 C18.8333338,9.8866646 18.9166663,9.5000018 18.99,9.14 C19.0633337,8.7799982 19.1,8.433335 19.1,8.1 C19.1,7.7933318 19.033334,7.5333344 18.9,7.32 C18.766666,7.1066656 18.5866678,7 18.36,7 C17.9466646,7 17.5466686,7.1466652 17.16,7.44 C16.7733314,7.7333348 16.413335,8.0866646 16.08,8.5 C15.746665,8.9133354 15.4533346,9.3433311 15.2,9.79 C14.9466654,10.2366689 14.753334,10.6066652 14.62,10.9 L13.56,16 L11.88,16 L14.62,2.36 L13.26,2.18 Z M29.9,14.22 C29.7799994,14.4733346 29.6066678,14.7199988 29.38,14.96 C29.1533322,15.2000012 28.8866682,15.4166657 28.58,15.61 C28.2733318,15.8033343 27.9266686,15.9566661 27.54,16.07 C27.1533314,16.1833339 26.7400022,16.24 26.3,16.24 C25.1933278,16.24 24.3433363,15.9233365 23.75,15.29 C23.1566637,14.6566635 22.86,13.7800056 22.86,12.66 C22.86,11.7133286 22.993332,10.8200042 23.26,9.98 C23.526668,9.1399958 23.8999976,8.4066698 24.38,7.78 C24.8600024,7.1533302 25.4433299,6.6600018 26.13,6.3 C26.8166701,5.9399982 27.5799958,5.76 28.42,5.76 C29.0600032,5.76 29.6099977,5.9233317 30.07,6.25 C30.5300023,6.5766683 30.76,7.0599968 30.76,7.7 C30.76,8.6466714 30.2900047,9.3933306 29.35,9.94 C28.4099953,10.4866694 26.8933438,10.8399992 24.8,11 C24.7466664,11.2266678 24.7100001,11.4466656 24.69,11.66 C24.6699999,11.8733344 24.66,12.079999 24.66,12.28 C24.66,13.080004 24.8633313,13.7333308 25.27,14.24 C25.6766687,14.7466692 26.2733294,15 27.06,15 C27.3133346,15 27.5633321,14.9600004 27.81,14.88 C28.0566679,14.7999996 28.2899989,14.7000006 28.51,14.58 C28.7300011,14.4599994 28.9299991,14.333334 29.11,14.2 C29.2900009,14.066666 29.446666,13.9466672 29.58,13.84 L29.9,14.22 Z M27.8,6.62 C27.2266638,6.6333334 26.6933358,6.9033307 26.2,7.43 C25.7066642,7.9566693 25.2866684,8.8599936 24.94,10.14 C26.2333398,10.0999998 27.2399964,9.8766687 27.96,9.47 C28.6800036,9.0633313 29.04,8.5000036 29.04,7.78 C29.04,7.4999986 28.9566675,7.2400012 28.79,7 C28.6233325,6.7599988 28.2933358,6.6333334 27.8,6.62 Z M39.38,14.94 C39.9666696,15.0466672 40.493331,15.2066656 40.96,15.42 L40.86,16 L35.6,16 L35.7,15.42 C36.0200016,15.286666 36.3233319,15.186667 36.61,15.12 C36.8966681,15.053333 37.1799986,14.9933336 37.46,14.94 L39.96,3.08 C39.6399984,2.9999996 39.3500013,2.9200004 39.09,2.84 C38.8299987,2.7599996 38.6066676,2.6733338 38.42,2.58 L38.56,2 L40.32,2 C40.853336,2 41.4433301,1.9733336 42.09,1.92 C42.7366699,1.8666664 43.3533304,1.84 43.94,1.84 C45.2600066,1.84 46.2433301,2.1233305 46.89,2.69 C47.5366699,3.2566695 47.86,4.0599948 47.86,5.1 C47.86,5.6200026 47.7700009,6.1199976 47.59,6.6 C47.4099991,7.0800024 47.1566683,7.5133314 46.83,7.9 C46.5033317,8.2866686 46.1033357,8.6233319 45.63,8.91 C45.1566643,9.1966681 44.620003,9.4133326 44.02,9.56 C44.4066686,10.4666712 44.8299977,11.3666622 45.29,12.26 C45.7500023,13.1533378 46.2266642,14.0399956 46.72,14.92 L47.66,15.5 L47.56,16 L45.28,16 L44.6,15.44 C44.3199986,14.973331 44.0700011,14.5133356 43.85,14.06 C43.6299989,13.6066644 43.4300009,13.1533356 43.25,12.7 C43.0699991,12.2466644 42.9100007,11.7800024 42.77,11.3 C42.6299993,10.8199976 42.5000006,10.3200026 42.38,9.8 L40.46,9.8 L39.38,14.94 Z M43.28,2.88 C42.9733318,2.88 42.7100011,2.8899999 42.49,2.91 C42.2699989,2.9300001 42.0666676,2.9533332 41.88,2.98 L40.64,8.94 L42.06,8.94 C42.7666702,8.9533334 43.3633309,8.8466678 43.85,8.62 C44.3366691,8.3933322 44.7299985,8.0900019 45.03,7.71 C45.3300015,7.3299981 45.5499993,6.9000024 45.69,6.42 C45.8300007,5.9399976 45.9,5.4466692 45.9,4.94 C45.9133334,4.2199964 45.7100021,3.6966683 45.29,3.37 C44.8699979,3.0433317 44.2000046,2.88 43.28,2.88 Z M58.3,14.9 L58.3,15.4 C58.033332,15.6133344 57.7100019,15.786666 57.33,15.92 C56.9499981,16.053334 56.5800018,16.12 56.22,16.12 C55.8333314,16.12 55.5566675,16.0400008 55.39,15.88 C55.2233325,15.7199992 55.14,15.5466676 55.14,15.36 C55.14,15.1199988 55.173333,14.7166695 55.24,14.15 C55.306667,13.5833305 55.4533322,12.8933374 55.68,12.08 L55.6,12.08 C55.4266658,12.4533352 55.2100013,12.8799976 54.95,13.36 C54.6899987,13.8400024 54.3800018,14.2933312 54.02,14.72 C53.6599982,15.1466688 53.2500023,15.5066652 52.79,15.8 C52.3299977,16.0933348 51.8200028,16.24 51.26,16.24 C50.793331,16.24 50.4000016,16.0766683 50.08,15.75 C49.7599984,15.4233317 49.6,14.960003 49.6,14.36 C49.6,14.0666652 49.6466662,13.6333362 49.74,13.06 C49.8333338,12.4866638 49.946666,11.8600034 50.08,11.18 C50.213334,10.4999966 50.3566659,9.8033369 50.51,9.09 C50.6633341,8.3766631 50.7999994,7.7333362 50.92,7.16 L49.7,6.98 L49.7,6.48 C49.9133344,6.3999996 50.1433321,6.3200004 50.39,6.24 C50.6366679,6.1599996 50.8833321,6.086667 51.13,6.02 C51.3766679,5.953333 51.6133322,5.8966669 51.84,5.85 C52.0666678,5.8033331 52.2733324,5.7733334 52.46,5.76 L52.9,6 C52.6866656,7.000005 52.4700011,7.9499955 52.25,8.85 C52.0299989,9.7500045 51.8266676,10.699995 51.64,11.7 C51.573333,12.0200016 51.5033337,12.3766647 51.43,12.77 C51.3566663,13.1633353 51.32,13.593331 51.32,14.06 C51.32,14.3400014 51.3966659,14.5666658 51.55,14.74 C51.7033341,14.9133342 51.879999,15 52.08,15 C52.3733348,15 52.6666652,14.9133342 52.96,14.74 C53.2533348,14.5666658 53.5299987,14.3400014 53.79,14.06 C54.0500013,13.7799986 54.2966655,13.4700017 54.53,13.13 C54.7633345,12.7899983 54.9733324,12.453335 55.16,12.12 C55.3466676,11.786665 55.5033327,11.4766681 55.63,11.19 C55.7566673,10.9033319 55.853333,10.6733342 55.92,10.5 L56.8,6 L58.46,6 L56.82,14.9 L58.3,14.9 Z M62.66,2.36 L61.26,2.18 L61.26,1.72 C61.4733344,1.6399996 61.7066654,1.5600004 61.96,1.48 C62.2133346,1.3999996 62.4699987,1.3233337 62.73,1.25 C62.9900013,1.1766663 63.2466654,1.1166669 63.5,1.07 C63.7533346,1.0233331 63.9866656,0.9866668 64.2,0.96 L64.62,1.18 L62.86,9.52 L62.96,9.52 C63.2000012,9.0399976 63.4633319,8.5733356 63.75,8.12 C64.0366681,7.6666644 64.3433317,7.2666684 64.67,6.92 C64.9966683,6.5733316 65.3399982,6.2933344 65.7,6.08 C66.0600018,5.8666656 66.439998,5.76 66.84,5.76 C67.5466702,5.76 68.1066646,6.0066642 68.52,6.5 C68.9333354,6.9933358 69.14,7.7599948 69.14,8.8 C69.14,9.8266718 68.9966681,10.7899955 68.71,11.69 C68.4233319,12.5900045 68.0200026,13.3766633 67.5,14.05 C66.9799974,14.7233367 66.353337,15.2566647 65.62,15.65 C64.886663,16.0433353 64.0733378,16.24 63.18,16.24 C62.5266634,16.24 61.9166695,16.1566675 61.35,15.99 C60.7833305,15.8233325 60.366668,15.6266678 60.1,15.4 L62.66,2.36 Z M66,7 C65.6533316,7 65.313335,7.1533318 64.98,7.46 C64.646665,7.7666682 64.3366681,8.1366645 64.05,8.57 C63.7633319,9.0033355 63.5033345,9.4566643 63.27,9.93 C63.0366655,10.4033357 62.8400008,10.7999984 62.68,11.12 L61.92,14.96 C62.120001,15.093334 62.3699985,15.1966663 62.67,15.27 C62.9700015,15.3433337 63.2666652,15.38 63.56,15.38 C64.0800026,15.38 64.5699977,15.2000018 65.03,14.84 C65.4900023,14.4799982 65.8933316,14.0066696 66.24,13.42 C66.5866684,12.8333304 66.859999,12.1700037 67.06,11.43 C67.260001,10.6899963 67.3533334,9.9400038 67.34,9.18 C67.3533334,8.5399968 67.2533344,8.0166687 67.04,7.61 C66.8266656,7.2033313 66.4800024,7 66,7 Z M71.66,7.16 L70.38,7 L70.38,6.5 C70.446667,6.4466664 70.5566659,6.3800004 70.71,6.3 C70.8633341,6.2199996 71.039999,6.1400004 71.24,6.06 C71.440001,5.9799996 71.6466656,5.9100003 71.86,5.85 C72.0733344,5.7899997 72.2733324,5.76 72.46,5.76 C72.7400014,5.76 72.9433327,5.8299993 73.07,5.97 C73.1966673,6.1100007 73.293333,6.2933322 73.36,6.52 L75.02,13.52 L75.08,14.72 L75.12,14.72 L75.58,13.54 C75.7533342,13.1666648 75.9299991,12.7566689 76.11,12.31 C76.2900009,11.8633311 76.4666658,11.4133356 76.64,10.96 C76.8133342,10.5066644 76.9733326,10.0600022 77.12,9.62 C77.2666674,9.1799978 77.3933328,8.7733352 77.5,8.4 C77.5,8.2533326 77.4833335,8.0600012 77.45,7.82 C77.4166665,7.5799988 77.3800002,7.3400012 77.34,7.1 C77.2999998,6.8599988 77.2600002,6.6366677 77.22,6.43 C77.1799998,6.2233323 77.1466668,6.0800004 77.12,6 C77.3066676,5.9199996 77.5066656,5.8600002 77.72,5.82 C77.9333344,5.7799998 78.139999,5.76 78.34,5.76 C78.740002,5.76 79.0933318,5.8399992 79.4,6 C78.9866646,7.6533416 78.4233369,9.3066584 77.71,10.96 C76.9966631,12.6133416 76.206671,14.2933248 75.34,16 C74.6199964,17.400007 73.9000036,18.4466632 73.18,19.14 C72.4599964,19.8333368 71.6466712,20.18 70.74,20.18 C70.539999,20.18 70.3500009,20.1533336 70.17,20.1 C69.9899991,20.0466664 69.800001,19.9666672 69.6,19.86 C69.5866666,19.7133326 69.5999998,19.5466676 69.64,19.36 C69.6800002,19.1733324 69.7433329,18.9866676 69.83,18.8 C69.9166671,18.6133324 70.0299993,18.4400008 70.17,18.28 C70.3100007,18.1199992 70.4666658,17.9933338 70.64,17.9 L72.26,18.74 C72.3533338,18.673333 72.4733326,18.5766673 72.62,18.45 C72.7666674,18.3233327 72.9199992,18.1500011 73.08,17.93 C73.2400008,17.7099989 73.3999992,17.4433349 73.56,17.13 C73.7200008,16.8166651 73.8733326,16.4400022 74.02,16 L71.66,7.16 Z"></path>
                </g>
            </g>
        </g>
    </g>
</svg>