<?xml version="1.0" encoding="UTF-8"?>
<svg width="171px" height="43px" viewBox="0 0 171 43" version="1.1" xmlns="http://www.w3.org/2000/svg" xmlns:xlink="http://www.w3.org/1999/xlink">
    <!-- Generator: Sketch 48.1 (47250) - http://www.bohemiancoding.com/sketch -->
    <title>the-example-app-logo-swift</title>
    <desc>Created with Sketch.</desc>
    <defs></defs>
    <g id="Page-1" stroke="none" stroke-width="1" fill="none" fill-rule="evenodd">
        <g id="the-example-app-logo-swift" transform="translate(0.000000, -4.000000)">
            <g id="Group" transform="translate(0.000000, 6.000000)" fill-rule="nonzero">
                <polygon id="Shape" fill="#D9453F" points="3.75 37 3.75 29.9 28 29.9 28 37"></polygon>
                <circle id="Oval" fill="#F5A623" cx="9.3" cy="14.3" r="9.3"></circle>
                <polygon id="Shape" fill="#3C80CF" points="35 27.6 19 0.4 35 0.4"></polygon>
            </g>
            <g id="Group" transform="translate(45.000000, 0.000000)">
                <g transform="translate(0.000000, 26.000000)" fill="#000000" id="example-app">
                    <path d="M8.14,9.88 C8.14,9.3599974 7.9766683,8.9133352 7.65,8.54 C7.3233317,8.1666648 6.8333366,7.98 6.18,7.98 C5.8599984,7.98 5.566668,8.0299995 5.3,8.13 C5.033332,8.2300005 4.800001,8.3666658 4.6,8.54 C4.399999,8.7133342 4.2400006,8.9166655 4.12,9.15 C3.9999994,9.3833345 3.9333334,9.6266654 3.92,9.88 L8.14,9.88 Z M11.16,11.14 L11.16,11.54 C11.16,11.673334 11.1533334,11.7999994 11.14,11.92 L3.92,11.92 C3.9466668,12.2000014 4.0299993,12.4533322 4.17,12.68 C4.3100007,12.9066678 4.4899989,13.1033325 4.71,13.27 C4.9300011,13.4366675 5.1766653,13.5666662 5.45,13.66 C5.7233347,13.7533338 6.0066652,13.8 6.3,13.8 C6.8200026,13.8 7.2599982,13.7033343 7.62,13.51 C7.9800018,13.3166657 8.2733322,13.0666682 8.5,12.76 L10.78,14.2 C10.313331,14.8800034 9.6966705,15.4033315 8.93,15.77 C8.1633295,16.1366685 7.2733384,16.32 6.26,16.32 C5.5133296,16.32 4.80667,16.2033345 4.14,15.97 C3.47333,15.7366655 2.8900025,15.3966689 2.39,14.95 C1.8899975,14.5033311 1.4966681,13.9533366 1.21,13.3 C0.9233319,12.6466634 0.78,11.9000042 0.78,11.06 C0.78,10.2466626 0.9199986,9.5100033 1.2,8.85 C1.4800014,8.1899967 1.8599976,7.6300023 2.34,7.17 C2.8200024,6.7099977 3.3866634,6.3533346 4.04,6.1 C4.6933366,5.8466654 5.3999962,5.72 6.16,5.72 C6.893337,5.72 7.5666636,5.8433321 8.18,6.09 C8.7933364,6.3366679 9.3199978,6.693331 9.76,7.16 C10.2000022,7.626669 10.5433321,8.19333 10.79,8.86 C11.0366679,9.52667 11.16,10.2866624 11.16,11.14 Z M19.56,16 L17.42,12.94 L15.22,16 L11.42,16 L15.4,10.78 L11.8,6.04 L15.62,6.04 L17.48,8.7 L19.36,6.04 L23.06,6.04 L19.48,10.78 L23.42,16 L19.56,16 Z M30.52,11.66 L30.1,11.66 C29.7399982,11.66 29.3766685,11.6766665 29.01,11.71 C28.6433315,11.7433335 28.3166681,11.8066662 28.03,11.9 C27.7433319,11.9933338 27.5066676,12.1299991 27.32,12.31 C27.1333324,12.4900009 27.04,12.7266652 27.04,13.02 C27.04,13.2066676 27.0833329,13.366666 27.17,13.5 C27.2566671,13.633334 27.366666,13.7399996 27.5,13.82 C27.633334,13.9000004 27.7866658,13.9566665 27.96,13.99 C28.1333342,14.0233335 28.2999992,14.04 28.46,14.04 C29.12667,14.04 29.6366649,13.8566685 29.99,13.49 C30.3433351,13.1233315 30.52,12.6266698 30.52,12 L30.52,11.66 Z M24.5,7.4 C25.0866696,6.8399972 25.7699961,6.4200014 26.55,6.14 C27.3300039,5.8599986 28.1266626,5.72 28.94,5.72 C29.7800042,5.72 30.4899971,5.8233323 31.07,6.03 C31.6500029,6.2366677 32.1199982,6.5566645 32.48,6.99 C32.8400018,7.4233355 33.1033325,7.9699967 33.27,8.63 C33.4366675,9.2900033 33.52,10.0733288 33.52,10.98 L33.52,16 L30.52,16 L30.52,14.94 L30.46,14.94 C30.2066654,15.3533354 29.8233359,15.6733322 29.31,15.9 C28.7966641,16.1266678 28.240003,16.24 27.64,16.24 C27.239998,16.24 26.8266688,16.1866672 26.4,16.08 C25.9733312,15.9733328 25.5833351,15.8000012 25.23,15.56 C24.8766649,15.3199988 24.5866678,15.000002 24.36,14.6 C24.1333322,14.199998 24.02,13.7066696 24.02,13.12 C24.02,12.3999964 24.2166647,11.8200022 24.61,11.38 C25.0033353,10.9399978 25.5099969,10.6000012 26.13,10.36 C26.7500031,10.1199988 27.4399962,9.9600004 28.2,9.88 C28.9600038,9.7999996 29.6999964,9.76 30.42,9.76 L30.42,9.6 C30.42,9.1066642 30.2466684,8.7433345 29.9,8.51 C29.5533316,8.2766655 29.1266692,8.16 28.62,8.16 C28.153331,8.16 27.7033355,8.259999 27.27,8.46 C26.8366645,8.660001 26.4666682,8.8999986 26.16,9.18 L24.5,7.4 Z M48.68,16 L48.68,10.56 C48.68,10.2799986 48.6600002,10.0100013 48.62,9.75 C48.5799998,9.4899987 48.5066672,9.2666676 48.4,9.08 C48.2933328,8.8933324 48.1500009,8.7433339 47.97,8.63 C47.7899991,8.5166661 47.5533348,8.46 47.26,8.46 C46.9799986,8.46 46.7366677,8.5199994 46.53,8.64 C46.3233323,8.7600006 46.1500007,8.919999 46.01,9.12 C45.8699993,9.320001 45.766667,9.5499987 45.7,9.81 C45.633333,10.0700013 45.6,10.3399986 45.6,10.62 L45.6,16 L42.32,16 L42.32,10.32 C42.32,9.7466638 42.2066678,9.293335 41.98,8.96 C41.7533322,8.626665 41.3933358,8.46 40.9,8.46 C40.3799974,8.46 39.9766681,8.6666646 39.69,9.08 C39.4033319,9.4933354 39.26,9.999997 39.26,10.6 L39.26,16 L35.96,16 L35.96,6.04 L39.14,6.04 L39.14,7.42 L39.18,7.42 C39.3000006,7.2066656 39.4499991,7.000001 39.63,6.8 C39.8100009,6.599999 40.0266654,6.4233341 40.28,6.27 C40.5333346,6.1166659 40.8166651,5.9933338 41.13,5.9 C41.4433349,5.8066662 41.7866648,5.76 42.16,5.76 C42.8800036,5.76 43.4899975,5.9066652 43.99,6.2 C44.4900025,6.4933348 44.8799986,6.9133306 45.16,7.46 C45.493335,6.9399974 45.9199974,6.5266682 46.44,6.22 C46.9600026,5.9133318 47.5933296,5.76 48.34,5.76 C49.0200034,5.76 49.5899977,5.8833321 50.05,6.13 C50.5100023,6.3766679 50.8799986,6.6966647 51.16,7.09 C51.4400014,7.4833353 51.6433327,7.9233309 51.77,8.41 C51.8966673,8.8966691 51.96,9.373331 51.96,9.84 L51.96,16 L48.68,16 Z M65.52,10.98 C65.52,11.6733368 65.4133344,12.3399968 65.2,12.98 C64.9866656,13.6200032 64.6766687,14.1833309 64.27,14.67 C63.8633313,15.1566691 63.3666696,15.5466652 62.78,15.84 C62.1933304,16.1333348 61.5266704,16.28 60.78,16.28 C60.1666636,16.28 59.5866694,16.1566679 59.04,15.91 C58.4933306,15.6633321 58.0666682,15.3266688 57.76,14.9 L57.72,14.9 L57.72,20.8 L54.44,20.8 L54.44,6.04 L57.56,6.04 L57.56,7.26 L57.62,7.26 C57.9266682,6.859998 58.3499973,6.5100015 58.89,6.21 C59.4300027,5.9099985 60.066663,5.76 60.8,5.76 C61.5200036,5.76 62.1733304,5.8999986 62.76,6.18 C63.3466696,6.4600014 63.8433313,6.8399976 64.25,7.32 C64.6566687,7.8000024 64.9699989,8.3566635 65.19,8.99 C65.4100011,9.6233365 65.52,10.2866632 65.52,10.98 Z M62.34,10.98 C62.34,10.6599984 62.2900005,10.3466682 62.19,10.04 C62.0899995,9.7333318 61.9433343,9.4633345 61.75,9.23 C61.5566657,8.9966655 61.3133348,8.8066674 61.02,8.66 C60.7266652,8.5133326 60.3866686,8.44 60,8.44 C59.6266648,8.44 59.2933348,8.5133326 59,8.66 C58.7066652,8.8066674 58.4566677,8.9999988 58.25,9.24 C58.0433323,9.4800012 57.8833339,9.7533318 57.77,10.06 C57.6566661,10.3666682 57.6,10.6799984 57.6,11 C57.6,11.3200016 57.6566661,11.6333318 57.77,11.94 C57.8833339,12.2466682 58.0433323,12.5199988 58.25,12.76 C58.4566677,13.0000012 58.7066652,13.1933326 59,13.34 C59.2933348,13.4866674 59.6266648,13.56 60,13.56 C60.3866686,13.56 60.7266652,13.4866674 61.02,13.34 C61.3133348,13.1933326 61.5566657,13.0000012 61.75,12.76 C61.9433343,12.5199988 62.0899995,12.2433349 62.19,11.93 C62.2900005,11.6166651 62.34,11.3000016 62.34,10.98 Z M67.62,16 L67.62,0.88 L70.94,0.88 L70.94,16 L67.62,16 Z M80.4,9.88 C80.4,9.3599974 80.2366683,8.9133352 79.91,8.54 C79.5833317,8.1666648 79.0933366,7.98 78.44,7.98 C78.1199984,7.98 77.826668,8.0299995 77.56,8.13 C77.293332,8.2300005 77.060001,8.3666658 76.86,8.54 C76.659999,8.7133342 76.5000006,8.9166655 76.38,9.15 C76.2599994,9.3833345 76.1933334,9.6266654 76.18,9.88 L80.4,9.88 Z M83.42,11.14 L83.42,11.54 C83.42,11.673334 83.4133334,11.7999994 83.4,11.92 L76.18,11.92 C76.2066668,12.2000014 76.2899993,12.4533322 76.43,12.68 C76.5700007,12.9066678 76.7499989,13.1033325 76.97,13.27 C77.1900011,13.4366675 77.4366653,13.5666662 77.71,13.66 C77.9833347,13.7533338 78.2666652,13.8 78.56,13.8 C79.0800026,13.8 79.5199982,13.7033343 79.88,13.51 C80.2400018,13.3166657 80.5333322,13.0666682 80.76,12.76 L83.04,14.2 C82.573331,14.8800034 81.9566705,15.4033315 81.19,15.77 C80.4233295,16.1366685 79.5333384,16.32 78.52,16.32 C77.7733296,16.32 77.06667,16.2033345 76.4,15.97 C75.73333,15.7366655 75.1500025,15.3966689 74.65,14.95 C74.1499975,14.5033311 73.7566681,13.9533366 73.47,13.3 C73.1833319,12.6466634 73.04,11.9000042 73.04,11.06 C73.04,10.2466626 73.1799986,9.5100033 73.46,8.85 C73.7400014,8.1899967 74.1199976,7.6300023 74.6,7.17 C75.0800024,6.7099977 75.6466634,6.3533346 76.3,6.1 C76.9533366,5.8466654 77.6599962,5.72 78.42,5.72 C79.153337,5.72 79.8266636,5.8433321 80.44,6.09 C81.0533364,6.3366679 81.5799978,6.693331 82.02,7.16 C82.4600022,7.626669 82.8033321,8.19333 83.05,8.86 C83.2966679,9.52667 83.42,10.2866624 83.42,11.14 Z M96.34,11.66 L95.92,11.66 C95.5599982,11.66 95.1966685,11.6766665 94.83,11.71 C94.4633315,11.7433335 94.1366681,11.8066662 93.85,11.9 C93.5633319,11.9933338 93.3266676,12.1299991 93.14,12.31 C92.9533324,12.4900009 92.86,12.7266652 92.86,13.02 C92.86,13.2066676 92.9033329,13.366666 92.99,13.5 C93.0766671,13.633334 93.186666,13.7399996 93.32,13.82 C93.453334,13.9000004 93.6066658,13.9566665 93.78,13.99 C93.9533342,14.0233335 94.1199992,14.04 94.28,14.04 C94.94667,14.04 95.4566649,13.8566685 95.81,13.49 C96.1633351,13.1233315 96.34,12.6266698 96.34,12 L96.34,11.66 Z M90.32,7.4 C90.9066696,6.8399972 91.5899961,6.4200014 92.37,6.14 C93.1500039,5.8599986 93.9466626,5.72 94.76,5.72 C95.6000042,5.72 96.3099971,5.8233323 96.89,6.03 C97.4700029,6.2366677 97.9399982,6.5566645 98.3,6.99 C98.6600018,7.4233355 98.9233325,7.9699967 99.09,8.63 C99.2566675,9.2900033 99.34,10.0733288 99.34,10.98 L99.34,16 L96.34,16 L96.34,14.94 L96.28,14.94 C96.0266654,15.3533354 95.6433359,15.6733322 95.13,15.9 C94.6166641,16.1266678 94.060003,16.24 93.46,16.24 C93.059998,16.24 92.6466688,16.1866672 92.22,16.08 C91.7933312,15.9733328 91.4033351,15.8000012 91.05,15.56 C90.6966649,15.3199988 90.4066678,15.000002 90.18,14.6 C89.9533322,14.199998 89.84,13.7066696 89.84,13.12 C89.84,12.3999964 90.0366647,11.8200022 90.43,11.38 C90.8233353,10.9399978 91.3299969,10.6000012 91.95,10.36 C92.5700031,10.1199988 93.2599962,9.9600004 94.02,9.88 C94.7800038,9.7999996 95.5199964,9.76 96.24,9.76 L96.24,9.6 C96.24,9.1066642 96.0666684,8.7433345 95.72,8.51 C95.3733316,8.2766655 94.9466692,8.16 94.44,8.16 C93.973331,8.16 93.5233355,8.259999 93.09,8.46 C92.6566645,8.660001 92.2866682,8.8999986 91.98,9.18 L90.32,7.4 Z M112.86,10.98 C112.86,11.6733368 112.753334,12.3399968 112.54,12.98 C112.326666,13.6200032 112.016669,14.1833309 111.61,14.67 C111.203331,15.1566691 110.70667,15.5466652 110.12,15.84 C109.53333,16.1333348 108.86667,16.28 108.12,16.28 C107.506664,16.28 106.926669,16.1566679 106.38,15.91 C105.833331,15.6633321 105.406668,15.3266688 105.1,14.9 L105.06,14.9 L105.06,20.8 L101.78,20.8 L101.78,6.04 L104.9,6.04 L104.9,7.26 L104.96,7.26 C105.266668,6.859998 105.689997,6.5100015 106.23,6.21 C106.770003,5.9099985 107.406663,5.76 108.14,5.76 C108.860004,5.76 109.51333,5.8999986 110.1,6.18 C110.68667,6.4600014 111.183331,6.8399976 111.59,7.32 C111.996669,7.8000024 112.309999,8.3566635 112.53,8.99 C112.750001,9.6233365 112.86,10.2866632 112.86,10.98 Z M109.68,10.98 C109.68,10.6599984 109.63,10.3466682 109.53,10.04 C109.429999,9.7333318 109.283334,9.4633345 109.09,9.23 C108.896666,8.9966655 108.653335,8.8066674 108.36,8.66 C108.066665,8.5133326 107.726669,8.44 107.34,8.44 C106.966665,8.44 106.633335,8.5133326 106.34,8.66 C106.046665,8.8066674 105.796668,8.9999988 105.59,9.24 C105.383332,9.4800012 105.223334,9.7533318 105.11,10.06 C104.996666,10.3666682 104.94,10.6799984 104.94,11 C104.94,11.3200016 104.996666,11.6333318 105.11,11.94 C105.223334,12.2466682 105.383332,12.5199988 105.59,12.76 C105.796668,13.0000012 106.046665,13.1933326 106.34,13.34 C106.633335,13.4866674 106.966665,13.56 107.34,13.56 C107.726669,13.56 108.066665,13.4866674 108.36,13.34 C108.653335,13.1933326 108.896666,13.0000012 109.09,12.76 C109.283334,12.5199988 109.429999,12.2433349 109.53,11.93 C109.63,11.6166651 109.68,11.3000016 109.68,10.98 Z M126,10.98 C126,11.6733368 125.893334,12.3399968 125.68,12.98 C125.466666,13.6200032 125.156669,14.1833309 124.75,14.67 C124.343331,15.1566691 123.84667,15.5466652 123.26,15.84 C122.67333,16.1333348 122.00667,16.28 121.26,16.28 C120.646664,16.28 120.066669,16.1566679 119.52,15.91 C118.973331,15.6633321 118.546668,15.3266688 118.24,14.9 L118.2,14.9 L118.2,20.8 L114.92,20.8 L114.92,6.04 L118.04,6.04 L118.04,7.26 L118.1,7.26 C118.406668,6.859998 118.829997,6.5100015 119.37,6.21 C119.910003,5.9099985 120.546663,5.76 121.28,5.76 C122.000004,5.76 122.65333,5.8999986 123.24,6.18 C123.82667,6.4600014 124.323331,6.8399976 124.73,7.32 C125.136669,7.8000024 125.449999,8.3566635 125.67,8.99 C125.890001,9.6233365 126,10.2866632 126,10.98 Z M122.82,10.98 C122.82,10.6599984 122.77,10.3466682 122.67,10.04 C122.569999,9.7333318 122.423334,9.4633345 122.23,9.23 C122.036666,8.9966655 121.793335,8.8066674 121.5,8.66 C121.206665,8.5133326 120.866669,8.44 120.48,8.44 C120.106665,8.44 119.773335,8.5133326 119.48,8.66 C119.186665,8.8066674 118.936668,8.9999988 118.73,9.24 C118.523332,9.4800012 118.363334,9.7533318 118.25,10.06 C118.136666,10.3666682 118.08,10.6799984 118.08,11 C118.08,11.3200016 118.136666,11.6333318 118.25,11.94 C118.363334,12.2466682 118.523332,12.5199988 118.73,12.76 C118.936668,13.0000012 119.186665,13.1933326 119.48,13.34 C119.773335,13.4866674 120.106665,13.56 120.48,13.56 C120.866669,13.56 121.206665,13.4866674 121.5,13.34 C121.793335,13.1933326 122.036666,13.0000012 122.23,12.76 C122.423334,12.5199988 122.569999,12.2433349 122.67,11.93 C122.77,11.6166651 122.82,11.3000016 122.82,10.98 Z"></path>
                </g>
                <g fill="#8091A5" id="The-Swift">
                    <path d="M8.02,20 L2.4,20 L2.5,19.42 C2.8200016,19.2999994 3.1366651,19.2033337 3.45,19.13 C3.7633349,19.0566663 4.1066648,18.9933336 4.48,18.94 L7,7.04 L3.94,7.04 L2.28,9.9 L1.76,9.9 C1.7733334,9.633332 1.8033331,9.3300017 1.85,8.99 C1.8966669,8.6499983 1.9466664,8.3033351 2,7.95 C2.0533336,7.5966649 2.1099997,7.2500017 2.17,6.91 C2.2300003,6.5699983 2.293333,6.266668 2.36,6 L13.96,6 C13.9066664,6.266668 13.8400004,6.566665 13.76,6.9 C13.6799996,7.233335 13.5933338,7.5766649 13.5,7.93 C13.4066662,8.2833351 13.3100005,8.6299983 13.21,8.97 C13.1099995,9.3100017 13.0133338,9.6199986 12.92,9.9 L12.4,9.9 L11.98,7.04 L8.92,7.04 L6.4,18.94 C6.7200016,19.006667 7.0233319,19.073333 7.31,19.14 C7.5966681,19.206667 7.8666654,19.2999994 8.12,19.42 L8.02,20 Z M14.26,6.18 L14.26,5.72 C14.460001,5.6399996 14.6833321,5.5566671 14.93,5.47 C15.1766679,5.3833329 15.433332,5.3033337 15.7,5.23 C15.966668,5.1566663 16.2266654,5.0966669 16.48,5.05 C16.7333346,5.0033331 16.9733322,4.9733334 17.2,4.96 L17.62,5.14 L15.82,13.54 L15.92,13.54 C16.1733346,13.006664 16.4599984,12.5100023 16.78,12.05 C17.1000016,11.5899977 17.4366649,11.1900017 17.79,10.85 C18.1433351,10.5099983 18.5133314,10.2433343 18.9,10.05 C19.2866686,9.8566657 19.679998,9.76 20.08,9.76 C20.6933364,9.76 21.1366653,9.9366649 21.41,10.29 C21.6833347,10.6433351 21.82,11.0799974 21.82,11.6 C21.82,11.9600018 21.786667,12.3466646 21.72,12.76 C21.653333,13.1733354 21.5733338,13.5733314 21.48,13.96 L20.34,18.88 L21.82,18.88 L21.82,19.4 C21.553332,19.6133344 21.2333352,19.786666 20.86,19.92 C20.4866648,20.053334 20.1133352,20.12 19.74,20.12 C19.3533314,20.12 19.0866674,20.0400008 18.94,19.88 C18.7933326,19.7199992 18.72,19.5466676 18.72,19.36 C18.72,19.1199988 18.753333,18.8500015 18.82,18.55 C18.886667,18.2499985 18.953333,17.9466682 19.02,17.64 L19.74,14.3 C19.8333338,13.8866646 19.9166663,13.5000018 19.99,13.14 C20.0633337,12.7799982 20.1,12.433335 20.1,12.1 C20.1,11.7933318 20.033334,11.5333344 19.9,11.32 C19.766666,11.1066656 19.5866678,11 19.36,11 C18.9466646,11 18.5466686,11.1466652 18.16,11.44 C17.7733314,11.7333348 17.413335,12.0866646 17.08,12.5 C16.746665,12.9133354 16.4533346,13.3433311 16.2,13.79 C15.9466654,14.2366689 15.753334,14.6066652 15.62,14.9 L14.56,20 L12.88,20 L15.62,6.36 L14.26,6.18 Z M30.9,18.22 C30.7799994,18.4733346 30.6066678,18.7199988 30.38,18.96 C30.1533322,19.2000012 29.8866682,19.4166657 29.58,19.61 C29.2733318,19.8033343 28.9266686,19.9566661 28.54,20.07 C28.1533314,20.1833339 27.7400022,20.24 27.3,20.24 C26.1933278,20.24 25.3433363,19.9233365 24.75,19.29 C24.1566637,18.6566635 23.86,17.7800056 23.86,16.66 C23.86,15.7133286 23.993332,14.8200042 24.26,13.98 C24.526668,13.1399958 24.8999976,12.4066698 25.38,11.78 C25.8600024,11.1533302 26.4433299,10.6600018 27.13,10.3 C27.8166701,9.9399982 28.5799958,9.76 29.42,9.76 C30.0600032,9.76 30.6099977,9.9233317 31.07,10.25 C31.5300023,10.5766683 31.76,11.0599968 31.76,11.7 C31.76,12.6466714 31.2900047,13.3933306 30.35,13.94 C29.4099953,14.4866694 27.8933438,14.8399992 25.8,15 C25.7466664,15.2266678 25.7100001,15.4466656 25.69,15.66 C25.6699999,15.8733344 25.66,16.079999 25.66,16.28 C25.66,17.080004 25.8633313,17.7333308 26.27,18.24 C26.6766687,18.7466692 27.2733294,19 28.06,19 C28.3133346,19 28.5633321,18.9600004 28.81,18.88 C29.0566679,18.7999996 29.2899989,18.7000006 29.51,18.58 C29.7300011,18.4599994 29.9299991,18.333334 30.11,18.2 C30.2900009,18.066666 30.446666,17.9466672 30.58,17.84 L30.9,18.22 Z M28.8,10.62 C28.2266638,10.6333334 27.6933358,10.9033307 27.2,11.43 C26.7066642,11.9566693 26.2866684,12.8599936 25.94,14.14 C27.2333398,14.0999998 28.2399964,13.8766687 28.96,13.47 C29.6800036,13.0633313 30.04,12.5000036 30.04,11.78 C30.04,11.4999986 29.9566675,11.2400012 29.79,11 C29.6233325,10.7599988 29.2933358,10.6333334 28.8,10.62 Z M39.42,18.62 C39.5666674,18.7400006 39.8133316,18.8699993 40.16,19.01 C40.5066684,19.1500007 40.8733314,19.2133334 41.26,19.2 C41.7000022,19.2133334 42.1266646,19.1800004 42.54,19.1 C42.9533354,19.0199996 43.326665,18.880001 43.66,18.68 C43.993335,18.479999 44.259999,18.2166683 44.46,17.89 C44.660001,17.5633317 44.76,17.1533358 44.76,16.66 C44.76,16.1133306 44.6300013,15.6533352 44.37,15.28 C44.1099987,14.9066648 43.7866686,14.5766681 43.4,14.29 C43.0133314,14.0033319 42.5966689,13.7300013 42.15,13.47 C41.7033311,13.2099987 41.2866686,12.9200016 40.9,12.6 C40.5133314,12.2799984 40.1900013,11.9033355 39.93,11.47 C39.6699987,11.0366645 39.54,10.5000032 39.54,9.86 C39.54,9.2466636 39.6499989,8.6900025 39.87,8.19 C40.0900011,7.6899975 40.4166645,7.2600018 40.85,6.9 C41.2833355,6.5399982 41.8133302,6.260001 42.44,6.06 C43.0666698,5.859999 43.779996,5.76 44.58,5.76 C45.3933374,5.76 46.1199968,5.8233327 46.76,5.95 C47.4000032,6.0766673 47.8999982,6.2333324 48.26,6.42 C48.2066664,6.6466678 48.1300005,6.9099985 48.03,7.21 L47.72,8.14 C47.6133328,8.4600016 47.5000006,8.7699985 47.38,9.07 C47.2599994,9.3700015 47.1533338,9.6333322 47.06,9.86 L46.54,9.86 L46.3,7.12 C46.0733322,7.0133328 45.7833351,6.9333336 45.43,6.88 C45.0766649,6.8266664 44.6933354,6.8 44.28,6.8 C43.879998,6.8 43.5033351,6.8466662 43.15,6.94 C42.7966649,7.0333338 42.4900013,7.1766657 42.23,7.37 C41.9699987,7.5633343 41.7666674,7.8066652 41.62,8.1 C41.4733326,8.3933348 41.4,8.739998 41.4,9.14 C41.4,9.673336 41.5299987,10.1166649 41.79,10.47 C42.0500013,10.8233351 42.3733314,11.1399986 42.76,11.42 C43.1466686,11.7000014 43.5633311,11.9699987 44.01,12.23 C44.4566689,12.4900013 44.8733314,12.786665 45.26,13.12 C45.6466686,13.453335 45.9699987,13.8566643 46.23,14.33 C46.4900013,14.8033357 46.62,15.3866632 46.62,16.08 C46.62,16.7066698 46.4966679,17.2733308 46.25,17.78 C46.0033321,18.2866692 45.6500023,18.7233315 45.19,19.09 C44.7299977,19.4566685 44.1633367,19.739999 43.49,19.94 C42.8166633,20.140001 42.0533376,20.24 41.2,20.24 C40.7733312,20.24 40.3633353,20.2133336 39.97,20.16 C39.5766647,20.1066664 39.2166683,20.0333338 38.89,19.94 C38.5633317,19.8466662 38.2733346,19.7433339 38.02,19.63 C37.7666654,19.5166661 37.573334,19.4066672 37.44,19.3 C37.4933336,19.0599988 37.5699995,18.7766683 37.67,18.45 C37.7700005,18.1233317 37.8799994,17.793335 38,17.46 C38.1200006,17.126665 38.2399994,16.8033349 38.36,16.49 C38.4800006,16.1766651 38.5933328,15.9066678 38.7,15.68 L39.22,15.68 L39.42,18.62 Z M57.4,16.98 C57.8933358,16.179996 58.3133316,15.4066704 58.66,14.66 C59.0066684,13.9133296 59.3066654,13.1600038 59.56,12.4 C59.56,12.2533326 59.5433335,12.0600012 59.51,11.82 L59.41,11.1 C59.3766665,10.8599988 59.3400002,10.6366677 59.3,10.43 C59.2599998,10.2233323 59.2266668,10.0800004 59.2,10 C59.3866676,9.9199996 59.5866656,9.8600002 59.8,9.82 C60.0133344,9.7799998 60.219999,9.76 60.42,9.76 C60.820002,9.76 61.1733318,9.8399992 61.48,10 C61.279999,10.8266708 61.013335,11.6699957 60.68,12.53 C60.346665,13.3900043 59.9666688,14.2466624 59.54,15.1 C59.1133312,15.9533376 58.6466692,16.7933292 58.14,17.62 C57.6333308,18.4466708 57.0933362,19.2399962 56.52,20 L55.58,20.24 L54.74,14.56 L54.74,12.92 L54.68,12.92 L53.88,14.56 C53.4399978,15.4800046 52.9933356,16.3899955 52.54,17.29 C52.0866644,18.1900045 51.6333356,19.0933288 51.18,20 L50.08,20.24 L49.12,11.16 L47.84,11 L47.84,10.5 C47.9200004,10.4466664 48.0399992,10.3766671 48.2,10.29 C48.3600008,10.2033329 48.5366657,10.1200004 48.73,10.04 C48.9233343,9.9599996 49.1233323,9.8933336 49.33,9.84 C49.5366677,9.7866664 49.7333324,9.76 49.92,9.76 C50.2133348,9.76 50.4366659,9.8299993 50.59,9.97 C50.7433341,10.1100007 50.8333332,10.2933322 50.86,10.52 L51.4,16.84 L51.32,18.28 L51.36,18.28 L51.96,16.82 L55.2,10.24 L55.88,10 C56.0400008,11.133339 56.1733328,12.0699963 56.28,12.81 C56.3866672,13.5500037 56.4599998,14.0933316 56.5,14.44 L56.82,16.84 L56.84,18.28 L56.88,18.28 L57.4,16.98 Z M62.68,10.98 L62.68,10.48 C62.880001,10.3999996 63.1066654,10.3166671 63.36,10.23 C63.6133346,10.1433329 63.873332,10.066667 64.14,10 C64.406668,9.933333 64.6599988,9.8766669 64.9,9.83 C65.1400012,9.7833331 65.3533324,9.76 65.54,9.76 L65.9,10 L64.02,18.88 L65.5,18.88 L65.5,19.4 C65.2199986,19.6133344 64.8933352,19.786666 64.52,19.92 C64.1466648,20.053334 63.7800018,20.12 63.42,20.12 C63.0333314,20.12 62.7566675,20.0333342 62.59,19.86 C62.4233325,19.6866658 62.34,19.4866678 62.34,19.26 C62.34,18.993332 62.3599998,18.7333346 62.4,18.48 C62.4400002,18.2266654 62.493333,17.9466682 62.56,17.64 L63.96,11.18 L62.68,10.98 Z M64.3,6.54 C64.3,6.1933316 64.4066656,5.920001 64.62,5.72 C64.8333344,5.519999 65.1133316,5.42 65.46,5.42 C65.8333352,5.42 66.1266656,5.519999 66.34,5.72 C66.5533344,5.920001 66.66,6.1933316 66.66,6.54 C66.66,6.873335 66.5533344,7.1333324 66.34,7.32 C66.1266656,7.5066676 65.8333352,7.6 65.46,7.6 C65.1133316,7.6 64.8333344,7.5066676 64.62,7.32 C64.4066656,7.1333324 64.3,6.873335 64.3,6.54 Z M69.4,11 L67.94,11 L67.94,10.48 C68.206668,10.3333326 68.4899985,10.2033339 68.79,10.09 C69.0900015,9.9766661 69.373332,9.886667 69.64,9.82 L69.78,9.12 C69.9533342,8.2933292 70.1899985,7.6100027 70.49,7.07 C70.7900015,6.5299973 71.139998,6.1033349 71.54,5.79 C71.940002,5.4766651 72.3799976,5.2600006 72.86,5.14 C73.3400024,5.0199994 73.8533306,4.96 74.4,4.96 C74.6266678,4.96 74.8966651,4.9866664 75.21,5.04 C75.5233349,5.0933336 75.7866656,5.1733328 76,5.28 C75.9733332,5.5733348 75.9033339,5.8766651 75.79,6.19 C75.6766661,6.5033349 75.486668,6.7733322 75.22,7 L73.7,5.76 C73.4599988,5.826667 73.240001,5.8999996 73.04,5.98 C72.839999,6.0600004 72.6500009,6.2099989 72.47,6.43 C72.2899991,6.6500011 72.1200008,6.959998 71.96,7.36 C71.7999992,7.760002 71.6466674,8.3066632 71.5,9 L71.3,10 L73.52,10 C73.586667,10.333335 73.520001,10.666665 73.32,11 L71.1,11 L69.82,19.14 C69.6733326,20.0866714 69.4266684,20.8733302 69.08,21.5 C68.7333316,22.1266698 68.3633353,22.6333314 67.97,23.02 C67.5766647,23.4066686 67.1933352,23.6933324 66.82,23.88 C66.4466648,24.0666676 66.160001,24.1866664 65.96,24.24 L65.78,23.8 C65.9400008,23.7199996 66.1333322,23.5766677 66.36,23.37 C66.5866678,23.1633323 66.8099989,22.8866684 67.03,22.54 C67.2500011,22.1933316 67.4566657,21.7700025 67.65,21.27 C67.8433343,20.7699975 67.9933328,20.18667 68.1,19.52 L69.4,11 Z M73.84,10.48 C74.106668,10.3333326 74.3899985,10.2000006 74.69,10.08 C74.9900015,9.9599994 75.2866652,9.866667 75.58,9.8 L75.9,8.28 C76.0866676,8.1333326 76.3033321,8.0033339 76.55,7.89 C76.7966679,7.7766661 77.053332,7.6666672 77.32,7.56 L77.74,7.8 L77.26,10 L79.74,10 C79.7666668,10.1600008 79.7666668,10.3266658 79.74,10.5 C79.7133332,10.6733342 79.6466672,10.8399992 79.54,11 L77.06,11 L75.8,16.8 C75.7466664,17.0533346 75.7066668,17.2766657 75.68,17.47 C75.6533332,17.6633343 75.64,17.8399992 75.64,18 C75.64,18.3466684 75.739999,18.5999992 75.94,18.76 C76.140001,18.9200008 76.3599988,19 76.6,19 C76.933335,19 77.2899981,18.9366673 77.67,18.81 C78.0500019,18.6833327 78.3999984,18.5400008 78.72,18.38 L78.94,18.74 C78.8199994,18.9133342 78.6400012,19.0866658 78.4,19.26 C78.1599988,19.4333342 77.8900015,19.5933326 77.59,19.74 C77.2899985,19.8866674 76.9766683,20.0066662 76.65,20.1 C76.3233317,20.1933338 76.0133348,20.24 75.72,20.24 C75.1333304,20.24 74.673335,20.106668 74.34,19.84 C74.006665,19.573332 73.84,19.1600028 73.84,18.6 C73.84,18.4133324 73.8566665,18.2066678 73.89,17.98 C73.9233335,17.7533322 73.9666664,17.5200012 74.02,17.28 L75.34,11 L73.82,11 L73.84,10.48 Z"></path>
                </g>
            </g>
        </g>
    </g>
</svg>